<svg width="32" height="24" viewBox="0 0 32 24" fill="none" xmlns="http://www.w3.org/2000/svg">
<rect width="32" height="24" rx="4" fill="#D12424"/>
<path d="M9.50426 7.27273V16H7.65909V9.02415H7.60795L5.60938 10.277V8.64062L7.76989 7.27273H9.50426ZM14.8342 16.1193C14.1779 16.1193 13.5941 16.0128 13.0827 15.7997C12.5742 15.5838 12.1751 15.2898 11.8853 14.9176C11.5955 14.5455 11.4506 14.1236 11.4506 13.652C11.4506 13.2884 11.533 12.9545 11.6978 12.6506C11.8654 12.3438 12.0927 12.0895 12.3796 11.8878C12.6665 11.6832 12.9876 11.5526 13.3427 11.4957V11.4361C12.8768 11.3423 12.4989 11.1165 12.2092 10.7585C11.9194 10.3977 11.7745 9.97869 11.7745 9.50142C11.7745 9.04972 11.9066 8.64773 12.1708 8.29545C12.435 7.94034 12.7972 7.66193 13.2575 7.46023C13.7205 7.25568 14.2461 7.15341 14.8342 7.15341C15.4222 7.15341 15.9464 7.25568 16.4066 7.46023C16.8697 7.66477 17.2333 7.9446 17.4975 8.29972C17.7617 8.65199 17.8952 9.05256 17.8981 9.50142C17.8952 9.98153 17.7475 10.4006 17.4549 10.7585C17.1623 11.1165 16.7873 11.3423 16.3299 11.4361V11.4957C16.6793 11.5526 16.9961 11.6832 17.2802 11.8878C17.5671 12.0895 17.7944 12.3438 17.962 12.6506C18.1325 12.9545 18.2191 13.2884 18.2219 13.652C18.2191 14.1236 18.0728 14.5455 17.783 14.9176C17.4933 15.2898 17.0927 15.5838 16.5813 15.7997C16.0728 16.0128 15.4904 16.1193 14.8342 16.1193ZM14.8342 14.7642C15.1268 14.7642 15.3825 14.7116 15.6012 14.6065C15.82 14.4986 15.9904 14.3509 16.1126 14.1634C16.2376 13.973 16.3001 13.7543 16.3001 13.5071C16.3001 13.2543 16.2362 13.0312 16.1083 12.8381C15.9805 12.642 15.8072 12.4886 15.5884 12.3778C15.3697 12.2642 15.1183 12.2074 14.8342 12.2074C14.5529 12.2074 14.3015 12.2642 14.0799 12.3778C13.8583 12.4886 13.6836 12.642 13.5558 12.8381C13.4308 13.0312 13.3683 13.2543 13.3683 13.5071C13.3683 13.7543 13.4293 13.973 13.5515 14.1634C13.6737 14.3509 13.8455 14.4986 14.0671 14.6065C14.2887 14.7116 14.5444 14.7642 14.8342 14.7642ZM14.8342 10.8651C15.0785 10.8651 15.2958 10.8153 15.4862 10.7159C15.6765 10.6165 15.8256 10.4787 15.9336 10.3026C16.0415 10.1264 16.0955 9.9233 16.0955 9.69318C16.0955 9.46591 16.0415 9.26705 15.9336 9.09659C15.8256 8.9233 15.6779 8.78835 15.4904 8.69176C15.3029 8.59233 15.0842 8.54261 14.8342 8.54261C14.587 8.54261 14.3683 8.59233 14.1779 8.69176C13.9876 8.78835 13.8384 8.9233 13.7305 9.09659C13.6254 9.26705 13.5728 9.46591 13.5728 9.69318C13.5728 9.9233 13.6268 10.1264 13.7347 10.3026C13.8427 10.4787 13.9918 10.6165 14.1822 10.7159C14.3725 10.8153 14.5898 10.8651 14.8342 10.8651ZM22.12 14.6705V8.63636H23.6456V14.6705H22.12ZM19.8658 12.4162V10.8906H25.8999V12.4162H19.8658Z" fill="white"/>
</svg>
