<svg width="74" height="16" viewBox="0 0 74 16" fill="none" xmlns="http://www.w3.org/2000/svg">
<path d="M42.8129 4.8006C43.4742 2.17689 41.8615 0.0057373 37.9109 0.0057373H29.3483L26.1403 12.8379L28.0025 15.9943H34.0937C38.0849 15.9943 41.177 14.1555 41.9717 10.9589C42.372 9.32049 41.9079 8.17476 40.8637 7.6019V7.5618C41.8539 6.92837 42.5536 5.93721 42.8129 4.8006ZM37.5918 10.8558C37.4294 11.526 36.9711 12.2134 35.0741 12.2134H31.1873L31.8661 9.46371H35.7355C37.6092 9.45798 37.7485 10.1626 37.5686 10.8558H37.5918ZM38.3692 4.88653C38.23 5.40211 37.8297 6.03226 36.1938 6.03226H32.713L33.2932 3.79809H36.7739C38.4272 3.78663 38.5084 4.31367 38.3692 4.88653Z" fill="#007ACC"/>
<path d="M48.2022 9.8017H55.999L56.8866 6.0208H49.142L49.7453 3.78663H57.4145L58.3021 0.0057373H45.7135L41.7223 15.9886H55.9816L56.9156 12.2077H47.6279L48.2022 9.8017Z" fill="#007ACC"/>
<path d="M59.3927 0.0057373L58.4993 3.78663H63.1577L60.1005 15.9886H64.9909L68.0539 3.78663H73.0429L74.0001 0.0057373H59.3927Z" fill="#007ACC"/>
<path d="M5.11677 15.9886H0.18576L2.3206 7.45296L2.8137 6.16401L1.50843 7.45296L0.058134 8.9023L0.00012207 4.6402L5.11677 0.0057373H9.10219L5.11677 15.9886Z" fill="#002F5E"/>
<path d="M22.9206 9.36632L21.3485 6.73688L28.9771 0.0057373H21.8706L18.97 2.75548L9.1312 11.6635L4.40903 15.9886H11.1326L16.1854 11.5375L17.8852 14.4018C18.4653 15.1236 19.2833 16.0001 22.7524 16.0001H26.8132L22.9264 9.36059L22.9206 9.36632Z" fill="#002F5E"/>
<path d="M18.4247 1.8732V1.83883C17.9894 1.23919 17.4086 0.757109 16.7356 0.436812C16.0626 0.116516 15.3189 -0.0317347 14.5727 0.00566457H9.32263L13.2384 6.58213L18.4247 1.8732Z" fill="#002F5E"/>
</svg>
