<svg width="20" height="20" viewBox="0 0 20 20" fill="none" xmlns="http://www.w3.org/2000/svg">
<path d="M14.9729 1.66663H5.0396C3.17918 1.66663 1.67293 3.17288 1.67293 5.03329V14.9687C1.67293 16.827 3.17918 18.3333 5.0396 18.3333H14.975C16.8333 18.3333 18.3417 16.827 18.3417 14.9666V5.03329C18.3396 3.17288 16.8333 1.66663 14.9729 1.66663Z" fill="url(#paint0_linear_102_876)"/>
<path d="M9.93542 5.49574L10.2729 4.91241C10.4813 4.54782 10.9458 4.42491 11.3104 4.63324C11.675 4.84157 11.7979 5.30616 11.5896 5.67074L8.3375 11.2999H10.6896C11.4521 11.2999 11.8792 12.1957 11.5479 12.8166H4.65209C4.23125 12.8166 3.89375 12.4791 3.89375 12.0582C3.89375 11.6374 4.23125 11.2999 4.65209 11.2999H6.58542L9.06042 7.01032L8.2875 5.66866C8.07917 5.30407 8.20209 4.84366 8.56667 4.63116C8.93125 4.42282 9.39167 4.54574 9.60417 4.91032L9.93542 5.49574ZM7.01042 13.5978L6.28125 14.8624C6.07292 15.227 5.60834 15.3499 5.24375 15.1416C4.87917 14.9332 4.75625 14.4687 4.96459 14.1041L5.50625 13.1666C6.11875 12.977 6.61667 13.1228 7.01042 13.5978ZM13.2896 11.3041H15.2625C15.6833 11.3041 16.0208 11.6416 16.0208 12.0624C16.0208 12.4832 15.6833 12.8207 15.2625 12.8207H14.1667L14.9063 14.1041C15.1146 14.4687 14.9917 14.9291 14.6271 15.1416C14.2625 15.3499 13.8021 15.227 13.5896 14.8624C12.3438 12.702 11.4083 11.0853 10.7875 10.0082C10.1521 8.91241 10.6063 7.81241 11.0542 7.43949C11.5521 8.29366 12.2958 9.58324 13.2896 11.3041Z" fill="white"/>
<defs>
<linearGradient id="paint0_linear_102_876" x1="10.0073" y1="1.66663" x2="10.0073" y2="18.3333" gradientUnits="userSpaceOnUse">
<stop stop-color="#18BFFB"/>
<stop offset="1" stop-color="#2072F3"/>
</linearGradient>
</defs>
</svg>
