<svg width="20" height="20" viewBox="0 0 20 20" fill="none" xmlns="http://www.w3.org/2000/svg">
<path d="M9.40867 10L12.3587 7.05004C12.5139 6.8939 12.601 6.68269 12.601 6.46254C12.601 6.24238 12.5139 6.03117 12.3587 5.87504C12.2812 5.79693 12.189 5.73494 12.0875 5.69263C11.9859 5.65032 11.877 5.62854 11.767 5.62854C11.657 5.62854 11.5481 5.65032 11.4465 5.69263C11.345 5.73494 11.2528 5.79693 11.1753 5.87504L7.64201 9.40837C7.5639 9.48584 7.5019 9.57801 7.4596 9.67956C7.41729 9.78111 7.39551 9.89003 7.39551 10C7.39551 10.11 7.41729 10.219 7.4596 10.3205C7.5019 10.4221 7.5639 10.5142 7.64201 10.5917L11.1753 14.1667C11.2532 14.2439 11.3456 14.305 11.4471 14.3465C11.5486 14.388 11.6573 14.409 11.767 14.4084C11.8767 14.409 11.9854 14.388 12.0869 14.3465C12.1885 14.305 12.2808 14.2439 12.3587 14.1667C12.5139 14.0106 12.601 13.7994 12.601 13.5792C12.601 13.3591 12.5139 13.1478 12.3587 12.9917L9.40867 10Z" fill="#191A1F"/>
</svg>
