<svg width="21" height="20" viewBox="0 0 21 20" fill="none" xmlns="http://www.w3.org/2000/svg">
<path d="M15.4333 5.51667C15.3487 5.31304 15.1869 5.15123 14.9833 5.06667C14.8831 5.02397 14.7755 5.00132 14.6666 5H6.33328C6.11227 5 5.90031 5.0878 5.74403 5.24408C5.58775 5.40036 5.49995 5.61232 5.49995 5.83333C5.49995 6.05435 5.58775 6.26631 5.74403 6.42259C5.90031 6.57887 6.11227 6.66667 6.33328 6.66667H12.6583L5.74162 13.575C5.66351 13.6525 5.60151 13.7446 5.55921 13.8462C5.5169 13.9477 5.49512 14.0567 5.49512 14.1667C5.49512 14.2767 5.5169 14.3856 5.55921 14.4871C5.60151 14.5887 5.66351 14.6809 5.74162 14.7583C5.81908 14.8364 5.91125 14.8984 6.0128 14.9407C6.11435 14.9831 6.22327 15.0048 6.33328 15.0048C6.44329 15.0048 6.55221 14.9831 6.65376 14.9407C6.75531 14.8984 6.84748 14.8364 6.92495 14.7583L13.8333 7.84167V14.1667C13.8333 14.3877 13.9211 14.5996 14.0774 14.7559C14.2336 14.9122 14.4456 15 14.6666 15C14.8876 15 15.0996 14.9122 15.2559 14.7559C15.4122 14.5996 15.4999 14.3877 15.4999 14.1667V5.83333C15.4986 5.72444 15.476 5.61685 15.4333 5.51667Z" fill="black"/>
</svg>
