<svg width="69" height="21" viewBox="0 0 69 21" fill="none" xmlns="http://www.w3.org/2000/svg">
<path d="M0.00123542 0.00128171C1.57893 0.000171716 3.15663 -0.000938275 4.73544 0.00128171C4.72098 2.07474 4.73766 4.1471 4.72543 6.22056C5.17461 5.58231 5.76055 5.0029 6.52549 4.76647C7.8975 4.33579 9.55636 4.63549 10.5392 5.73327C11.5276 6.83327 11.8634 8.34952 11.9046 9.78918C11.9279 11.2333 11.7889 12.7462 11.0707 14.0293C10.5815 14.9318 9.72647 15.6455 8.71359 15.8697C7.70293 16.095 6.54884 16.0628 5.66938 15.459C5.06565 15.0539 4.7321 14.3823 4.42412 13.7474C4.44413 14.4178 4.40633 15.0861 4.39299 15.7554C2.9287 15.7554 1.46441 15.7554 0.00012207 15.7554C0.00012207 10.504 0.00012358 5.25265 0.00123542 0.00128171Z" fill="#FAFCFC"/>
<path d="M25.9882 2.29901C27.5692 1.79064 29.1291 1.21788 30.7102 0.710617C30.6968 2.0859 30.7057 3.46228 30.7046 4.83756C31.4229 4.83756 32.1422 4.83645 32.8627 4.83645C32.8538 5.87762 32.8616 6.91768 32.856 7.95775C32.1367 7.96996 31.4151 7.93888 30.6968 7.97439C30.7191 9.05442 30.6846 10.1344 30.7135 11.2145C30.7257 11.6951 30.9336 12.239 31.4117 12.4299C31.8943 12.5342 32.3968 12.4377 32.8638 12.2978C32.8538 13.3412 32.8582 14.3857 32.8593 15.4291C31.5396 15.8387 30.1376 16.1284 28.7544 15.9286C27.9183 15.8065 27.1178 15.3592 26.6586 14.6399C26.145 13.8618 26.006 12.9072 25.9715 11.9959C25.9682 10.6495 25.9715 9.30416 25.9704 7.95886C25.4189 7.95997 24.8686 7.9522 24.3182 7.96996C24.2982 6.92545 24.3115 5.88095 24.3115 4.83534C24.8641 4.83867 25.4167 4.83645 25.9704 4.83645C25.9815 3.99064 25.9471 3.14261 25.9882 2.29901Z" fill="#FAFCFC"/>
<path d="M33.9879 1.45971C35.5244 0.893619 37.1933 0.868091 38.8121 0.886961C40.2798 0.94912 41.7985 1.37425 42.9148 2.36436C44.3913 3.65528 44.4525 6.30482 42.8992 7.55578C42.5023 7.88989 42.0309 8.12188 41.5395 8.28172C42.2522 8.53147 42.9626 8.87223 43.4541 9.46608C44.2423 10.3752 44.368 11.6894 44.0834 12.8205C43.8265 13.8572 43.046 14.6986 42.1065 15.1759C40.401 16.0994 38.3841 16.0805 36.5051 15.8985C35.6234 15.8152 34.755 15.6387 33.9011 15.409C33.8656 14.2757 33.9012 13.1401 33.8834 12.008C35.3488 12.493 36.9554 12.8149 38.4841 12.4486C39.5093 12.1911 39.5615 10.6005 38.6465 10.1665C37.6792 9.68586 36.5462 9.87123 35.5178 10.0078C35.5233 8.93772 35.5189 7.86658 35.52 6.79433C36.3183 6.83207 37.1244 6.87758 37.916 6.74549C38.3941 6.66113 38.9355 6.42137 39.0667 5.90856C39.1401 5.49786 39.0957 5.03056 38.811 4.70644C38.4875 4.32904 37.976 4.1803 37.4946 4.15144C36.3116 4.09039 35.1208 4.29574 34.0134 4.70644C33.9745 3.62642 34.019 2.54196 33.9879 1.45971Z" fill="#F9DC1C"/>
<path d="M46.5783 3.16149C47.6801 1.80286 49.3846 1.02254 51.1168 0.905986C52.7268 0.840497 54.3667 0.863807 55.9333 1.29004C55.9111 2.4078 55.9333 3.52667 55.9211 4.64444C54.6458 4.28813 53.316 4.03616 51.9874 4.1849C51.1802 4.29368 50.3775 4.70882 49.9672 5.43364C49.6803 5.91982 49.6158 6.49035 49.5736 7.04202C50.532 6.29388 51.8073 6.11739 52.9903 6.18954C54.4879 6.28611 55.9088 7.19298 56.5982 8.52718C57.1141 9.52174 57.2041 10.6894 57.0451 11.7861C56.8761 12.9483 56.2513 14.0472 55.3029 14.7498C53.9075 15.8365 52.0408 16.1562 50.3163 15.933C48.8109 15.7499 47.4011 14.9518 46.4671 13.7619C45.3731 12.4421 44.8839 10.7116 44.8516 9.01669C44.8072 6.96099 45.2174 4.7732 46.5783 3.16149Z" fill="#F9DC1C"/>
<path d="M58.1403 1.13456C61.2323 1.13345 64.3243 1.13345 67.4152 1.13456C67.4119 2.25787 67.4153 3.38118 67.413 4.50449C65.7586 4.51781 64.102 4.48118 62.4487 4.52336C62.4642 5.26706 62.4676 6.01408 62.4476 6.75888C63.3859 6.74112 64.3588 6.60015 65.2638 6.92427C66.558 7.35717 67.5631 8.51267 67.8644 9.83689C68.1513 11.1123 68.0757 12.5286 67.4086 13.6775C66.7815 14.7541 65.6263 15.4124 64.4455 15.7176C62.3141 16.2482 60.0771 15.9607 57.988 15.3857C57.9568 14.2702 57.9824 13.1546 57.9735 12.0391C59.3144 12.3765 60.7598 12.7062 62.1173 12.27C63.247 11.9203 63.4149 10.2332 62.5243 9.54718C61.9895 9.14536 61.2968 9.04769 60.6453 9.01994C59.9159 9.00884 59.1854 9.1054 58.4761 9.27301C58.3249 9.30187 58.1937 9.38845 58.0736 9.47836C58.1081 9.35737 58.1314 9.23416 58.1414 9.10984C58.1381 6.45142 58.1392 3.79188 58.1403 1.13456Z" fill="#F9DC1C"/>
<path d="M14.1282 6.14071C15.3324 4.93415 17.1224 4.58006 18.7713 4.58783C20.0187 4.55231 21.3374 4.86533 22.2747 5.7289C23.2464 6.62467 23.6967 7.94112 23.8735 9.21982C23.9936 9.99238 23.9791 10.776 23.9769 11.5552C21.7855 11.5552 19.5951 11.5552 17.4026 11.5552C17.4382 11.9404 17.5171 12.3489 17.8118 12.6253C18.3343 13.1192 19.0959 13.1858 19.7797 13.2313C20.9772 13.2513 22.2191 13.1226 23.2875 12.5409C23.2787 13.4822 23.2875 14.4246 23.2798 15.367C21.9411 15.8365 20.5146 15.9719 19.1048 15.9974C17.506 16.0263 15.7882 15.7444 14.5385 14.6743C13.3744 13.692 12.8585 12.1502 12.7907 10.6684C12.6873 9.07774 12.9641 7.31952 14.1282 6.14071Z" fill="#FAFCFC"/>
<g filter="url(#filter0_d_25_373)">
<path d="M17.8262 7.51924C18.2042 6.97313 19.1371 6.93872 19.5129 7.50592C19.8509 8.01985 19.872 8.66364 19.8831 9.25749C19.0592 9.2586 18.2365 9.2586 17.4126 9.2586C17.4348 8.66364 17.4682 8.02318 17.8262 7.51924Z" fill="#027B5B"/>
</g>
<g filter="url(#filter1_d_25_373)">
<path d="M5.52039 7.86124C5.96401 7.71805 6.48991 7.93783 6.69115 8.36184C6.98134 8.9346 6.97134 9.59948 6.98023 10.2266C6.958 10.8549 6.92686 11.5342 6.56774 12.0759C6.21974 12.612 5.30581 12.6131 4.97003 12.0626C4.65094 11.5508 4.61869 10.9204 4.61536 10.3343C4.61536 9.7682 4.61424 9.18879 4.78213 8.64267C4.88998 8.28858 5.14459 7.95004 5.52039 7.86124Z" fill="#027B5B"/>
</g>
<g filter="url(#filter2_d_25_373)">
<path d="M50.582 9.03431C51.2503 8.79012 52.1019 8.99324 52.4744 9.62705C52.9291 10.4018 52.898 11.4463 52.4155 12.2C51.9396 12.9948 50.6543 13.088 50.065 12.3776C49.5569 11.7993 49.5091 10.959 49.6659 10.2364C49.7615 9.72806 50.0728 9.21635 50.582 9.03431Z" fill="#027B5B"/>
</g>
<defs>
<filter id="filter0_d_25_373" x="13.4126" y="7.09489" width="10.4705" height="10.1637" filterUnits="userSpaceOnUse" color-interpolation-filters="sRGB">
<feFlood flood-opacity="0" result="BackgroundImageFix"/>
<feColorMatrix in="SourceAlpha" type="matrix" values="0 0 0 0 0 0 0 0 0 0 0 0 0 0 0 0 0 0 127 0" result="hardAlpha"/>
<feOffset dy="4"/>
<feGaussianBlur stdDeviation="2"/>
<feComposite in2="hardAlpha" operator="out"/>
<feColorMatrix type="matrix" values="0 0 0 0 0 0 0 0 0 0 0 0 0 0 0 0 0 0 0.25 0"/>
<feBlend mode="normal" in2="BackgroundImageFix" result="effect1_dropShadow_25_373"/>
<feBlend mode="normal" in="SourceGraphic" in2="effect1_dropShadow_25_373" result="shape"/>
</filter>
<filter id="filter1_d_25_373" x="0.615356" y="7.81757" width="10.3649" height="12.6592" filterUnits="userSpaceOnUse" color-interpolation-filters="sRGB">
<feFlood flood-opacity="0" result="BackgroundImageFix"/>
<feColorMatrix in="SourceAlpha" type="matrix" values="0 0 0 0 0 0 0 0 0 0 0 0 0 0 0 0 0 0 127 0" result="hardAlpha"/>
<feOffset dy="4"/>
<feGaussianBlur stdDeviation="2"/>
<feComposite in2="hardAlpha" operator="out"/>
<feColorMatrix type="matrix" values="0 0 0 0 0 0 0 0 0 0 0 0 0 0 0 0 0 0 0.25 0"/>
<feBlend mode="normal" in2="BackgroundImageFix" result="effect1_dropShadow_25_373"/>
<feBlend mode="normal" in="SourceGraphic" in2="effect1_dropShadow_25_373" result="shape"/>
</filter>
<filter id="filter2_d_25_373" x="45.5866" y="8.93399" width="11.2106" height="11.9238" filterUnits="userSpaceOnUse" color-interpolation-filters="sRGB">
<feFlood flood-opacity="0" result="BackgroundImageFix"/>
<feColorMatrix in="SourceAlpha" type="matrix" values="0 0 0 0 0 0 0 0 0 0 0 0 0 0 0 0 0 0 127 0" result="hardAlpha"/>
<feOffset dy="4"/>
<feGaussianBlur stdDeviation="2"/>
<feComposite in2="hardAlpha" operator="out"/>
<feColorMatrix type="matrix" values="0 0 0 0 0 0 0 0 0 0 0 0 0 0 0 0 0 0 0.25 0"/>
<feBlend mode="normal" in2="BackgroundImageFix" result="effect1_dropShadow_25_373"/>
<feBlend mode="normal" in="SourceGraphic" in2="effect1_dropShadow_25_373" result="shape"/>
</filter>
</defs>
</svg>
