<svg width="80" height="15" viewBox="0 0 80 15" fill="none" xmlns="http://www.w3.org/2000/svg">
<path d="M5.7193 3.64203C4.53694 3.64203 3.66765 4.17249 3.11147 5.23292V0.0546875H7.62939e-05V14.7074H1.66461C1.92752 13.8081 2.15575 13.255 2.34963 13.0479C2.80156 13.8042 3.25013 14.3072 3.69529 14.557C4.14044 14.8067 4.71759 14.9316 5.42704 14.9316C6.79009 14.9316 7.8332 14.4129 8.55663 13.3755C9.27985 12.3381 9.64157 10.9754 9.64157 9.28681C9.64157 7.53397 9.29031 6.15509 8.58806 5.14988C7.88564 4.14463 6.92934 3.64203 5.7193 3.64203ZM5.96439 12.0128C5.62983 12.4816 5.20494 12.7159 4.68953 12.7159C4.25739 12.7159 3.8865 12.5228 3.57642 12.1362C3.2663 11.7498 3.11147 11.1774 3.11147 10.4186V8.34667C3.11147 7.531 3.26112 6.90124 3.56084 6.45738C3.8603 6.01369 4.26443 5.79174 4.77323 5.79174C5.2122 5.79174 5.6039 5.98858 5.94881 6.38215C6.29372 6.77578 6.46615 7.74208 6.46615 9.2806C6.46615 10.6333 6.29889 11.5442 5.96439 12.0128ZM21.0678 9.82755C21.0678 7.67284 20.5835 6.10321 19.6148 5.11873C18.6461 4.13435 17.4849 3.64203 16.1308 3.64203C14.6307 3.64203 13.4034 4.17166 12.4486 5.23045C11.4938 6.28923 11.0165 7.68086 11.0165 9.4049C11.0165 10.5639 11.2542 11.5584 11.7298 12.3883C12.2051 13.2183 12.8091 13.8497 13.5414 14.2825C14.2736 14.715 15.1639 14.9316 16.212 14.9316C18.6136 14.9316 20.2065 13.68 20.991 11.1763L18.174 10.9618C17.9663 12.0961 17.3476 12.6632 16.3172 12.6632C15.7638 12.6632 15.2885 12.467 14.8908 12.0746C14.493 11.6823 14.2944 11.1009 14.2944 10.3304C14.2944 10.1878 14.2977 10.0203 14.3047 9.8276H21.0678V9.82755ZM16.2457 5.73904C17.332 5.73904 17.9236 6.48211 18.0205 7.96793H14.2945C14.4329 6.48211 15.0833 5.73904 16.2457 5.73904ZM27.8513 12.318C27.2356 12.318 26.8449 12.2216 26.6788 12.0287C26.5127 11.8358 26.4299 11.4533 26.4299 10.8815V6.30395H28.6962V3.81128H26.4299V0.395397L23.7539 0.610318L23.4977 3.81128H21.6539V6.30395H23.3185V11.3482C23.3185 12.6863 23.5896 13.6111 24.1321 14.1226C24.6745 14.6341 25.5926 14.8898 26.8862 14.8898C27.2826 14.8898 27.9328 14.8109 28.837 14.653V12.2749C28.4634 12.3038 28.1349 12.318 27.8513 12.318Z" fill="white"/>
<path d="M56.7223 3.58734C55.54 3.58734 54.6707 4.1178 54.1145 5.17823V0H51.0031V14.6527H52.6676C52.9305 13.7534 53.1588 13.2003 53.3527 12.9932C53.8046 13.7495 54.2532 14.2525 54.6983 14.5023C55.1435 14.7521 55.7206 14.8769 56.4301 14.8769C57.7931 14.8769 58.8362 14.3582 59.5597 13.3209C60.2829 12.2834 60.6446 10.9207 60.6446 9.23212C60.6446 7.47928 60.2933 6.1004 59.5911 5.0952C58.8887 4.08994 57.9324 3.58734 56.7223 3.58734ZM56.9674 11.9581C56.6329 12.4269 56.208 12.6612 55.6926 12.6612C55.2604 12.6612 54.8895 12.4681 54.5794 12.0815C54.2693 11.6951 54.1145 11.1227 54.1145 10.3639V8.29198C54.1145 7.47632 54.2641 6.84655 54.5639 6.4027C54.8633 5.95901 55.2675 5.73705 55.7763 5.73705C56.2152 5.73705 56.6069 5.93389 56.9518 6.32747C57.2968 6.7211 57.4692 7.68739 57.4692 9.22591C57.4692 10.5786 57.3019 11.4895 56.9674 11.9581ZM72.1242 9.88277C72.1242 7.72806 71.6399 6.15843 70.6712 5.17394C69.7025 4.18952 68.5413 3.69719 67.1872 3.69719C65.6872 3.69719 64.4598 4.22683 63.505 5.28561C62.5503 6.34439 62.0729 7.73602 62.0729 9.46007C62.0729 10.619 62.3106 11.6136 62.7862 12.4434C63.2615 13.2734 63.8655 13.9049 64.5978 14.3377C65.33 14.7702 66.2203 14.9868 67.2685 14.9868C69.67 14.9868 71.2629 13.7351 72.0474 11.2315L69.2304 11.017C69.0227 12.1512 68.404 12.7183 67.3736 12.7183C66.8203 12.7183 66.3449 12.5222 65.9472 12.1298C65.5495 11.7374 65.3508 11.1561 65.3508 10.3856C65.3508 10.243 65.3542 10.0754 65.3611 9.88277H72.1242ZM67.302 5.79426C68.3884 5.79426 68.98 6.53733 69.0768 8.02315H65.3508C65.4892 6.53733 66.1397 5.79426 67.302 5.79426ZM79.0144 12.4282C78.3987 12.4282 78.008 12.3318 77.8418 12.1389C77.6758 11.946 77.593 11.5635 77.593 10.9917V6.41413H79.8593V3.92145H77.593V0.505569L74.917 0.72049L74.6608 3.92145H72.817V6.41413H74.4816V11.4584C74.4816 12.7964 74.7526 13.7213 75.2952 14.2327C75.8376 14.7442 76.7557 15 78.0493 15C78.4457 15 79.0958 14.921 80.0001 14.7632V12.3851C79.6265 12.414 79.2979 12.4282 79.0144 12.4282Z" fill="white"/>
<path d="M45.5958 12.7411C46.9697 11.3228 47.6567 9.65957 47.6567 7.75122C47.6567 5.76373 46.9487 4.11695 45.5333 2.8106C44.1176 1.50448 42.2393 0.851196 39.8987 0.851196C37.5485 0.851196 35.6612 1.51596 34.2363 2.84522C32.8114 4.1746 32.0992 5.8594 32.0992 7.89926C32.0992 9.85372 32.7792 11.5039 34.1391 12.8496C35.499 14.1954 37.3957 14.8681 39.8295 14.8681C42.2996 14.8682 44.2218 14.1594 45.5958 12.7411ZM36.3732 11.6075C35.9693 11.2058 35.8132 10.951 35.6218 10.5955C35.2511 9.90681 35.1524 9.38563 35.0039 8.40192C34.9429 7.99829 34.9877 7.23438 35.0572 6.89988C35.1317 6.54154 35.2187 6.155 35.3418 5.80082C35.5796 5.116 35.7729 4.80392 36.2487 4.28043C36.8112 3.66161 37.4188 3.2604 38.2138 3.00734C38.7638 2.83226 39.9463 2.72526 40.5968 2.84704C41.4771 3.0119 41.9243 3.14411 42.3307 3.35535C42.6468 3.51961 42.9503 3.71772 43.3354 4.1064C43.9494 4.72599 44.0047 4.79485 44.3402 5.59931C44.5306 6.05586 44.7043 7.13206 44.6781 7.76078C44.607 9.46433 44.3402 10.2703 43.4688 11.406C43.0672 11.9294 42.5261 12.2716 41.9928 12.5234C41.566 12.7249 40.7835 12.963 39.8588 12.9447C38.3614 12.9151 37.4047 12.6334 36.3732 11.6075Z" fill="white"/>
<path d="M38.144 5.61519C37.6947 5.42334 37.1444 5.72997 36.915 6.30008C36.6856 6.87019 36.8639 7.48788 37.3133 7.67973C37.7626 7.87158 38.3129 7.56494 38.5423 6.99483C38.7717 6.42472 38.5934 5.80704 38.144 5.61519Z" fill="#FED041"/>
<path d="M40.4987 6.17023C41.0645 6.30708 41.6182 6.00102 41.7355 5.48663C41.8527 4.97224 41.4891 4.44432 40.9234 4.30747C40.3576 4.17063 39.8039 4.47669 39.6867 4.99107C39.5694 5.50546 39.933 6.03339 40.4987 6.17023Z" fill="#FED041"/>
<path d="M38.3254 10.3524C38.6774 10.8137 39.2942 10.9193 39.7032 10.5882C40.1122 10.2572 40.1585 9.61483 39.8066 9.15354C39.4547 8.69225 38.8378 8.58668 38.4288 8.91775C38.0198 9.24882 37.9735 9.89115 38.3254 10.3524Z" fill="#FED041"/>
<path d="M41.0852 8.69464C41.1997 9.2644 41.6998 9.63945 42.2022 9.53233C42.7045 9.42521 43.0189 8.87649 42.9044 8.30673C42.7899 7.73697 42.2899 7.36192 41.7875 7.46904C41.2851 7.57615 40.9707 8.12487 41.0852 8.69464Z" fill="#FED041"/>
<path d="M36.7526 8.45299C36.387 8.41452 36.0566 8.72582 36.0147 9.1483C35.9728 9.57078 36.2353 9.94444 36.6009 9.98291C36.9665 10.0214 37.2969 9.71007 37.3388 9.28759C37.3807 8.86512 37.1182 8.49145 36.7526 8.45299Z" fill="#FED041"/>
<path d="M41.5478 10.3572C41.2048 10.1891 40.7762 10.3787 40.5905 10.7808C40.4048 11.1828 40.5324 11.645 40.8754 11.8131C41.2185 11.9812 41.6471 11.7915 41.8328 11.3895C42.0185 10.9875 41.8909 10.5253 41.5478 10.3572Z" fill="#FED041"/>
<path d="M43.6684 6.04132C43.4502 5.6285 43.0403 5.42449 42.7529 5.58565C42.4655 5.74682 42.4093 6.21213 42.6275 6.62495C42.8456 7.03778 43.2555 7.24179 43.543 7.08062C43.8304 6.91946 43.8865 6.45415 43.6684 6.04132Z" fill="#FED041"/>
<path d="M43.005 10.9363C42.8573 10.8294 42.6018 10.9418 42.4344 11.1874C42.2671 11.4329 42.2512 11.7186 42.399 11.8254C42.5467 11.9323 42.8022 11.8199 42.9696 11.5744C43.1369 11.3288 43.1528 11.0432 43.005 10.9363Z" fill="#FED041"/>
<path d="M38.5775 11.5702C38.2773 11.3927 37.9316 11.4325 37.8052 11.6592C37.6789 11.8858 37.8198 12.2135 38.12 12.391C38.4201 12.5685 38.7659 12.5287 38.8922 12.302C39.0185 12.0753 38.8776 11.7477 38.5775 11.5702Z" fill="#FED041"/>
<path d="M36.966 10.786C36.82 10.5419 36.5797 10.4215 36.4292 10.5169C36.2788 10.6124 36.2751 10.8877 36.4211 11.1318C36.5671 11.3759 36.8074 11.4963 36.9579 11.4009C37.1083 11.3054 37.112 11.0301 36.966 10.786Z" fill="#FED041"/>
<path d="M40.2056 12.844C40.461 12.844 40.668 12.6656 40.668 12.4456C40.668 12.2256 40.461 12.0472 40.2056 12.0472C39.9502 12.0472 39.7432 12.2256 39.7432 12.4456C39.7432 12.6656 39.9502 12.844 40.2056 12.844Z" fill="#FED041"/>
<path d="M44.087 8.93171C43.8855 8.83784 43.5922 9.05769 43.4319 9.42276C43.2717 9.78783 43.3052 10.1599 43.5067 10.2537C43.7083 10.3476 44.0016 10.1278 44.1618 9.76269C44.3221 9.39762 44.2886 9.02558 44.087 8.93171Z" fill="#FED041"/>
<path d="M44.1785 7.15792C44.0096 7.17842 43.9006 7.43937 43.935 7.74078C43.9695 8.04218 44.1344 8.2699 44.3033 8.2494C44.4723 8.2289 44.5812 7.96794 44.5468 7.66654C44.5123 7.36514 44.3474 7.13742 44.1785 7.15792Z" fill="#FED041"/>
<path d="M35.4315 6.12388C35.3325 6.44876 35.3998 6.75991 35.5817 6.81865C35.7635 6.87745 35.9913 6.66154 36.0902 6.33649C36.1893 6.01161 36.1219 5.70052 35.9401 5.64172C35.7583 5.58298 35.5304 5.79878 35.4315 6.12388Z" fill="#FED041"/>
<path d="M42.0152 3.92617C42.0825 3.78557 41.903 3.55264 41.6142 3.40591C41.3255 3.25918 41.0368 3.25422 40.9695 3.39483C40.9021 3.53543 41.0816 3.76836 41.3704 3.91509C41.6591 4.06181 41.9478 4.06678 42.0152 3.92617Z" fill="#FED041"/>
<path d="M43.4374 4.70128C43.3151 4.51472 43.142 4.41492 43.0509 4.47828C42.9597 4.5417 42.9849 4.74442 43.1073 4.93093C43.2294 5.11744 43.4025 5.21713 43.4936 5.15388C43.5848 5.09052 43.5596 4.8879 43.4374 4.70128Z" fill="#FED041"/>
<path d="M39.9255 8.20048C40.2913 8.20048 40.5879 7.86218 40.5879 7.44488C40.5879 7.02757 40.2913 6.68927 39.9255 6.68927C39.5596 6.68927 39.263 7.02757 39.263 7.44488C39.263 7.86218 39.5596 8.20048 39.9255 8.20048Z" fill="#FED041"/>
<path d="M35.1586 8.31952C35.1307 8.61231 35.2466 8.86367 35.4172 8.88081C35.5877 8.89801 35.7488 8.67446 35.7763 8.38156C35.8043 8.08877 35.6884 7.83747 35.5178 7.82027C35.3472 7.80302 35.1862 8.02657 35.1586 8.31952Z" fill="#FED041"/>
<path d="M38.2658 3.57216C37.8285 3.70007 37.5455 4.06295 37.6337 4.38268C37.7218 4.70241 38.1477 4.85791 38.585 4.73001C39.0222 4.6021 39.3052 4.23922 39.2171 3.91949C39.1289 3.59976 38.703 3.44425 38.2658 3.57216Z" fill="#FED041"/>
<path d="M37.0767 4.18263C37.001 4.09867 36.8092 4.15536 36.6483 4.30924C36.4874 4.46312 36.4183 4.65593 36.494 4.73989C36.5697 4.82385 36.7615 4.76716 36.9224 4.61328C37.0833 4.45939 37.1524 4.26659 37.0767 4.18263Z" fill="#FED041"/>
<path d="M39.5253 3.44695C39.7536 3.44695 39.9387 3.34854 39.9387 3.22714C39.9387 3.10574 39.7536 3.00732 39.5253 3.00732C39.2969 3.00732 39.1118 3.10574 39.1118 3.22714C39.1118 3.34854 39.2969 3.44695 39.5253 3.44695Z" fill="#FED041"/>
<path d="M41.3303 3.82257L41.3237 3.89126L41.2703 4.13168L41.1837 4.43623L41.2281 4.45915L41.3037 4.1729L41.3504 3.98056L41.377 3.85005L41.3303 3.82257Z" fill="#FED041"/>
<path d="M39.1564 3.83173L39.203 3.85689L39.3542 3.94163L39.5164 4.05269L39.7098 4.20722L39.8832 4.37208L40.0032 4.50606L39.9599 4.56101L39.8299 4.42247L39.7143 4.308L39.5298 4.15227L39.3297 4.01148L39.1863 3.92559L39.1564 3.83173Z" fill="#FED041"/>
<path d="M37.7888 4.57477L37.7457 4.78084L37.7092 5.07275L37.7025 5.34065V5.61201L37.7523 5.60168L37.7622 5.13458L37.7821 4.90789L37.822 4.67434L37.8452 4.59878L37.7888 4.57477Z" fill="#FED041"/>
<path d="M38.5461 6.13056L38.7195 6.02753L38.9429 5.91762L39.1563 5.81458L39.3797 5.71501L39.5865 5.63945L39.7265 5.58103L39.8199 5.56042L39.8232 5.62225L39.5698 5.71501L39.2064 5.86613L38.9763 5.97604L38.7129 6.09968L38.5761 6.20272L38.5461 6.13056Z" fill="#FED041"/>
<path d="M41.1036 6.10999L41.187 6.26111L41.3004 6.48779L41.4304 6.7969L41.5304 7.04419L41.6304 7.2812L41.7105 7.51129L41.6605 7.53877L41.4604 7.01671L41.2837 6.61489L41.1937 6.40536L41.1169 6.24737L41.0502 6.13406L41.1036 6.10999Z" fill="#FED041"/>
<path d="M43.3043 7.10258L43.2476 7.25024L43.181 7.36702L43.1076 7.48039L43.0076 7.62464L42.9476 7.69674L42.8675 7.79637L42.7441 7.92001L42.7841 7.96809L42.9642 7.75856L43.1109 7.56622L43.2243 7.38762L43.311 7.22963L43.361 7.09912L43.3043 7.10258Z" fill="#FED041"/>
<path d="M41.7171 5.23413L41.9739 5.23754L42.2106 5.26501L42.4174 5.30282L42.6041 5.35778L42.8108 5.4402L42.9309 5.5089L42.9876 5.55698L42.8875 5.56039L42.7942 5.49516L42.6308 5.43334L42.4774 5.38525L42.2673 5.33717L42.0639 5.31656L41.8905 5.30623L41.7171 5.29249V5.23413Z" fill="#FED041"/>
<path d="M42.8553 8.88281L43.0509 9.0202L43.2466 9.16214L43.4021 9.26748L43.5088 9.33618L43.5 9.37739L43.3844 9.29496L43.1754 9.16214L43.0065 9.0385L42.8909 8.96063L42.8153 8.90567L42.8553 8.88281Z" fill="#FED041"/>
<path d="M42.1395 9.51013L42.1484 9.73912L42.1528 10.0139V10.1558L42.1307 10.4031L42.0951 10.6046L42.0461 10.8153L41.9839 10.9847L41.935 11.0809L41.895 11.1221L41.8817 11.09L41.9394 10.9939L42.0061 10.8153L42.0417 10.6916L42.0817 10.5039L42.104 10.3344L42.1128 10.1009L42.1217 9.89024L42.1084 9.69791L42.0995 9.51013H42.1395Z" fill="#FED041"/>
<path d="M41.2504 9.07056L40.908 9.25377L40.6102 9.39571L40.3567 9.49644L40.1344 9.57887L39.9833 9.62927L39.9966 9.67966L40.1744 9.62009L40.3834 9.53766L40.5657 9.46897L40.788 9.36824L40.9392 9.29955L41.1126 9.20794L41.237 9.14386L41.277 9.11177L41.2504 9.07056Z" fill="#FED041"/>
<path d="M39.6721 10.5589L39.8232 10.7466L39.9522 10.8703L40.0767 11.0077L40.21 11.1222L40.339 11.2229L40.4724 11.3145L40.5435 11.3419L40.5612 11.3007L40.4946 11.2824L40.4057 11.2184L40.2856 11.1267L40.1389 11.0123L40.0144 10.8932L39.881 10.7466L39.7655 10.6047L39.6988 10.5177L39.6721 10.5589Z" fill="#FED041"/>
<path d="M38.7429 10.6642L38.5784 11.2046L38.4628 11.5068L38.4984 11.5114L38.6273 11.1313L38.7296 10.8337L38.7873 10.6688L38.7429 10.6642Z" fill="#FED041"/>
<path d="M37.129 9.73914L37.2936 9.81211L37.4625 9.86232L37.6359 9.89423L37.8271 9.92161L38.0138 9.93529L38.1294 9.93075L38.1383 9.98095L37.9338 9.9855L37.7515 9.96267L37.6048 9.93989L37.4491 9.90338L37.2624 9.84408L37.1557 9.78934L37.0802 9.76196L37.129 9.73914Z" fill="#FED041"/>
<path d="M36.3866 8.55311L36.4088 8.36989L36.4755 8.1913L36.5555 7.98984L36.6801 7.77459L36.7823 7.63264L36.8935 7.48152L36.9957 7.38074L37.0268 7.41283L36.8401 7.62803L36.7645 7.75167L36.6711 7.89823L36.5822 8.05853L36.5244 8.1913L36.4755 8.32868L36.4577 8.43402V8.53475L36.3866 8.55311Z" fill="#FED041"/>
<path d="M38.1249 7.52277L38.1916 7.72884L38.2894 8.00817L38.3872 8.27376L38.4761 8.47527L38.5606 8.67678L38.6229 8.80955L38.5873 8.8462L38.4672 8.58517L38.3161 8.22342L38.2094 7.94865L38.1339 7.71966L38.076 7.54107L38.1249 7.52277Z" fill="#FED041"/>
<path d="M36.1054 6.23364L36.6255 6.31921L36.9056 6.36367L36.9156 6.41157L36.4455 6.34314L36.0353 6.28155L36.1054 6.23364Z" fill="#FED041"/>
</svg>
