<svg width="49" height="48" viewBox="0 0 49 48" fill="none" xmlns="http://www.w3.org/2000/svg">
<rect x="0.5" width="48" height="48" rx="8" fill="#F79621"/>
<path d="M30.9814 27.1425C30.8502 25.62 29.2939 24.6018 29.2939 24.6018C29.2939 24.6018 31.2777 24.0637 31.482 21.7125C31.6114 20.2125 30.6664 18.6468 28.2945 17.9493L29.112 14.8612L27.1658 14.3456L26.3502 17.4262L24.7358 16.9987L25.5514 13.9181L23.6014 13.4025L22.7858 16.4831L19.6508 15.6525L19.1352 17.5968L21.0439 18.1012L18.5539 27.5081L16.6452 27L16.0977 29.0625L19.2327 29.8931L18.417 32.9793L20.3745 33.5062L21.192 30.42L22.8064 30.8475L21.9814 33.9375L23.937 34.4493L24.7545 31.3631L25.2064 31.4812C29.0164 32.4375 31.2064 29.7675 30.9814 27.1425ZM24.2708 18.9562C24.2708 18.9562 25.062 19.1606 26.1983 19.4662C27.2764 19.7568 28.0977 20.7093 27.8445 21.7837C27.5914 22.8581 26.4683 23.5425 25.2889 23.25C24.207 22.98 23.2752 22.7175 23.2752 22.7175L24.2708 18.9562ZM24.3589 29.0456C23.2339 28.7718 21.7808 28.3631 21.7808 28.3631L22.812 24.4575C22.812 24.4575 24.1245 24.8325 25.2927 25.1137C26.6895 25.4587 27.5427 26.3756 27.2352 27.6037C26.9277 28.8318 25.8758 29.415 24.3589 29.0456Z" fill="white"/>
</svg>
