<svg width="49" height="48" viewBox="0 0 49 48" fill="none" xmlns="http://www.w3.org/2000/svg">
<rect x="0.5" width="48" height="48" rx="8" fill="#F79621"/>
<path d="M32.1032 22.9294C31.1901 21.705 29.3301 21.66 29.3301 21.66C29.3301 21.66 30.7326 20.16 29.6657 18.0525C28.9814 16.7025 27.3576 15.8775 24.9782 16.5319L24.0407 13.4775L22.1151 14.0625L23.0526 17.1094L21.4551 17.5988L20.5176 14.55L18.5882 15.1444L19.5257 18.1932L16.417 19.1419L17.0001 21.0638L18.8864 20.4863L21.7364 29.7938L19.8501 30.375L20.4745 32.4225L23.5776 31.485L24.5151 34.5375L26.4407 33.9375L25.5032 30.885L27.1007 30.3975L28.0382 33.45L29.9676 32.8613L29.0301 29.8069L29.4764 29.67C33.2226 28.4588 33.6876 25.0407 32.1032 22.9294ZM22.0851 19.5113C22.0851 19.5113 22.8726 19.2657 23.992 18.9282C25.0607 18.6075 26.2626 18.9844 26.617 20.0307C26.9714 21.0769 26.3751 22.2507 25.2145 22.6219C24.1514 22.9632 23.2232 23.2313 23.2232 23.2313L22.0851 19.5113ZM27.4795 28.0369C26.3845 28.3969 24.9295 28.8169 24.9295 28.8169L23.7501 24.9544C23.7501 24.9544 25.0626 24.5794 26.2026 24.2044C27.5714 23.76 28.7789 24.09 29.1651 25.2957C29.5514 26.5013 28.9626 27.5513 27.4795 28.0369Z" fill="white"/>
</svg>
