<svg width="32" height="32" viewBox="0 0 32 32" fill="none" xmlns="http://www.w3.org/2000/svg">
<path d="M25.3337 18.6666H28.0003C28.3539 18.6666 28.6931 18.5261 28.9431 18.2761C29.1932 18.0261 29.3337 17.6869 29.3337 17.3333C29.3337 16.9797 29.1932 16.6405 28.9431 16.3905C28.6931 16.1404 28.3539 16 28.0003 16H25.3337V14.6666C25.3219 14.0524 25.2277 13.4425 25.0537 12.8533C26.3069 12.3728 27.386 11.5252 28.1497 10.4213C28.9133 9.31749 29.326 8.00885 29.3337 6.66663C29.3337 6.313 29.1932 5.97387 28.9431 5.72382C28.6931 5.47377 28.3539 5.33329 28.0003 5.33329C27.6467 5.33329 27.3076 5.47377 27.0575 5.72382C26.8075 5.97387 26.667 6.313 26.667 6.66663C26.6658 7.52642 26.3876 8.36295 25.8737 9.05222C25.3597 9.74149 24.6374 10.2468 23.8137 10.4933C23.1561 9.65059 22.3055 8.97836 21.3337 8.53329C21.3475 8.35578 21.3475 8.17747 21.3337 7.99996C21.3337 6.58547 20.7718 5.22892 19.7716 4.22872C18.7714 3.22853 17.4148 2.66663 16.0003 2.66663C14.5858 2.66663 13.2293 3.22853 12.2291 4.22872C11.2289 5.22892 10.667 6.58547 10.667 7.99996C10.6532 8.17747 10.6532 8.35578 10.667 8.53329C9.67581 8.97105 8.80627 9.64379 8.13366 10.4933C7.3199 10.2374 6.60926 9.72801 6.10552 9.03957C5.60179 8.35113 5.33133 7.51968 5.33366 6.66663C5.33366 6.313 5.19318 5.97387 4.94313 5.72382C4.69309 5.47377 4.35395 5.33329 4.00033 5.33329C3.6467 5.33329 3.30756 5.47377 3.05752 5.72382C2.80747 5.97387 2.66699 6.313 2.66699 6.66663C2.67468 8.00885 3.08735 9.31749 3.85099 10.4213C4.61464 11.5252 5.6937 12.3728 6.94699 12.8533C6.77296 13.4425 6.67879 14.0524 6.66699 14.6666V16H4.00033C3.6467 16 3.30756 16.1404 3.05752 16.3905C2.80747 16.6405 2.66699 16.9797 2.66699 17.3333C2.66699 17.6869 2.80747 18.0261 3.05752 18.2761C3.30756 18.5261 3.6467 18.6666 4.00033 18.6666H6.66699V20C6.66814 20.618 6.73067 21.2343 6.85366 21.84C5.62203 22.3335 4.56571 23.1834 3.81987 24.2808C3.07403 25.3782 2.67261 26.6731 2.66699 28C2.66699 28.3536 2.80747 28.6927 3.05752 28.9428C3.30756 29.1928 3.6467 29.3333 4.00033 29.3333C4.35395 29.3333 4.69309 29.1928 4.94313 28.9428C5.19318 28.6927 5.33366 28.3536 5.33366 28C5.33726 27.2223 5.56746 26.4626 5.99607 25.8138C6.42469 25.1649 7.03315 24.6551 7.74699 24.3466C8.53993 25.8483 9.72753 27.1051 11.1819 27.9818C12.6362 28.8585 14.3022 29.3218 16.0003 29.3218C17.6985 29.3218 19.3644 28.8585 20.8188 27.9818C22.2731 27.1051 23.4607 25.8483 24.2537 24.3466C24.9675 24.6551 25.576 25.1649 26.0046 25.8138C26.4332 26.4626 26.6634 27.2223 26.667 28C26.667 28.3536 26.8075 28.6927 27.0575 28.9428C27.3076 29.1928 27.6467 29.3333 28.0003 29.3333C28.3539 29.3333 28.6931 29.1928 28.9431 28.9428C29.1932 28.6927 29.3337 28.3536 29.3337 28C29.328 26.6731 28.9266 25.3782 28.1808 24.2808C27.4349 23.1834 26.3786 22.3335 25.147 21.84C25.27 21.2343 25.3325 20.618 25.3337 20V18.6666ZM14.667 26.5333C13.1612 26.2259 11.8078 25.4077 10.8359 24.2172C9.86404 23.0266 9.33334 21.5368 9.33366 20V14.6666C9.33366 13.6058 9.75509 12.5883 10.5052 11.8382C11.2554 11.0881 12.2728 10.6666 13.3337 10.6666H14.667V26.5333ZM13.3337 7.99996C13.3337 7.29272 13.6146 6.61444 14.1147 6.11434C14.6148 5.61424 15.2931 5.33329 16.0003 5.33329C16.7076 5.33329 17.3858 5.61424 17.8859 6.11434C18.386 6.61444 18.667 7.29272 18.667 7.99996H13.3337ZM22.667 20C22.6673 21.5368 22.1366 23.0266 21.1647 24.2172C20.1929 25.4077 18.8395 26.2259 17.3337 26.5333V10.6666H18.667C19.7279 10.6666 20.7453 11.0881 21.4954 11.8382C22.2456 12.5883 22.667 13.6058 22.667 14.6666V20Z" fill="black"/>
</svg>
