<svg width="40" height="40" viewBox="0 0 40 40" fill="none" xmlns="http://www.w3.org/2000/svg">
<rect width="40" height="40" rx="8" fill="#1AD65A"/>
<path d="M25.5917 16.0082C25.5142 15.9301 25.4221 15.8681 25.3205 15.8258C25.219 15.7835 25.11 15.7617 25 15.7617C24.89 15.7617 24.7811 15.7835 24.6796 15.8258C24.578 15.8681 24.4858 15.9301 24.4084 16.0082L18.2 22.2249L15.5917 19.6082C15.5113 19.5305 15.4163 19.4694 15.3123 19.4284C15.2082 19.3874 15.0971 19.3673 14.9853 19.3692C14.8735 19.3712 14.7631 19.3951 14.6606 19.4397C14.558 19.4843 14.4652 19.5486 14.3875 19.6291C14.3098 19.7095 14.2487 19.8044 14.2077 19.9085C14.1667 20.0125 14.1466 20.1236 14.1486 20.2354C14.1505 20.3473 14.1744 20.4576 14.219 20.5602C14.2636 20.6627 14.3279 20.7555 14.4084 20.8332L17.6084 24.0332C17.6858 24.1113 17.778 24.1733 17.8796 24.2156C17.9811 24.2579 18.09 24.2797 18.2 24.2797C18.3101 24.2797 18.419 24.2579 18.5205 24.2156C18.6221 24.1733 18.7142 24.1113 18.7917 24.0332L25.5917 17.2332C25.6763 17.1552 25.7438 17.0605 25.79 16.9551C25.8361 16.8496 25.86 16.7358 25.86 16.6207C25.86 16.5056 25.8361 16.3918 25.79 16.2864C25.7438 16.181 25.6763 16.0863 25.5917 16.0082Z" fill="white"/>
</svg>
