<svg width="49" height="48" viewBox="0 0 49 48" fill="none" xmlns="http://www.w3.org/2000/svg">
<rect x="0.5" width="48" height="48" rx="8" fill="#0890E8"/>
<path d="M25.1934 31.7307H17.2959L17.8978 28.5432H24.1246C29.0371 28.5432 29.3146 25.3557 29.6522 22.7551C29.9372 20.6419 28.7578 19.4663 25.7971 19.4663H19.5028L20.0484 16.2788H27.2896C32.9146 16.2788 33.5109 19.7344 33.5109 21.2194V21.9301C33.5109 26.4469 31.3321 31.7307 25.1934 31.7307Z" fill="white"/>
<path d="M21.8996 25.5919H14.4746L14.9621 23.7675C15.0664 23.3738 15.2981 23.0257 15.621 22.7774C15.9438 22.5291 16.3398 22.3947 16.7471 22.395H24.1721L23.6846 24.2213C23.5794 24.6143 23.3474 24.9617 23.0247 25.2095C22.702 25.4573 22.3065 25.5917 21.8996 25.5919Z" fill="white"/>
</svg>
