<svg width="111" height="23" viewBox="0 0 111 23" fill="none" xmlns="http://www.w3.org/2000/svg">
<path d="M15.9176 6.65625H12.1847C12.1165 6.1733 11.9773 5.74432 11.767 5.36932C11.5568 4.98864 11.2869 4.66477 10.9574 4.39773C10.6278 4.13068 10.2472 3.92614 9.81534 3.78409C9.3892 3.64205 8.92614 3.57102 8.42614 3.57102C7.52273 3.57102 6.7358 3.79545 6.06534 4.24432C5.39489 4.6875 4.875 5.33523 4.50568 6.1875C4.13636 7.03409 3.9517 8.0625 3.9517 9.27273C3.9517 10.517 4.13636 11.5625 4.50568 12.4091C4.88068 13.2557 5.40341 13.8949 6.07386 14.3267C6.74432 14.7585 7.51989 14.9744 8.40057 14.9744C8.89489 14.9744 9.35227 14.9091 9.77273 14.7784C10.1989 14.6477 10.5767 14.4574 10.9062 14.2074C11.2358 13.9517 11.5085 13.642 11.7244 13.2784C11.946 12.9148 12.0994 12.5 12.1847 12.0341L15.9176 12.0511C15.821 12.8523 15.5795 13.625 15.1932 14.3693C14.8125 15.108 14.2983 15.7699 13.6506 16.3551C13.0085 16.9347 12.2415 17.3949 11.3494 17.7358C10.4631 18.071 9.46023 18.2386 8.34091 18.2386C6.78409 18.2386 5.39205 17.8864 4.16477 17.1818C2.94318 16.4773 1.97727 15.4574 1.26705 14.1222C0.5625 12.7869 0.210227 11.1705 0.210227 9.27273C0.210227 7.36932 0.568182 5.75 1.28409 4.41477C2 3.07955 2.97159 2.0625 4.19886 1.36364C5.42614 0.659091 6.80682 0.306818 8.34091 0.306818C9.35227 0.306818 10.2898 0.448863 11.1534 0.732954C12.0227 1.01705 12.7926 1.43182 13.4631 1.97727C14.1335 2.51704 14.679 3.17898 15.0994 3.96307C15.5256 4.74716 15.7983 5.64489 15.9176 6.65625ZM24.4105 18.2557C23.0866 18.2557 21.9418 17.9744 20.9759 17.4119C20.0156 16.8437 19.2741 16.054 18.7514 15.0426C18.2287 14.0256 17.9673 12.8466 17.9673 11.5057C17.9673 10.1534 18.2287 8.97159 18.7514 7.96023C19.2741 6.94318 20.0156 6.15341 20.9759 5.59091C21.9418 5.02273 23.0866 4.73864 24.4105 4.73864C25.7344 4.73864 26.8764 5.02273 27.8366 5.59091C28.8026 6.15341 29.5469 6.94318 30.0696 7.96023C30.5923 8.97159 30.8537 10.1534 30.8537 11.5057C30.8537 12.8466 30.5923 14.0256 30.0696 15.0426C29.5469 16.054 28.8026 16.8437 27.8366 17.4119C26.8764 17.9744 25.7344 18.2557 24.4105 18.2557ZM24.4276 15.4432C25.0298 15.4432 25.5327 15.2727 25.9361 14.9318C26.3395 14.5852 26.6435 14.1136 26.848 13.517C27.0582 12.9205 27.1634 12.2415 27.1634 11.4801C27.1634 10.7188 27.0582 10.0398 26.848 9.44318C26.6435 8.84659 26.3395 8.375 25.9361 8.02841C25.5327 7.68182 25.0298 7.50852 24.4276 7.50852C23.8196 7.50852 23.3082 7.68182 22.8935 8.02841C22.4844 8.375 22.1747 8.84659 21.9645 9.44318C21.7599 10.0398 21.6577 10.7188 21.6577 11.4801C21.6577 12.2415 21.7599 12.9205 21.9645 13.517C22.1747 14.1136 22.4844 14.5852 22.8935 14.9318C23.3082 15.2727 23.8196 15.4432 24.4276 15.4432ZM33.2145 18V4.90909H36.6747V7.21875H36.8281C37.1009 6.4517 37.5554 5.84659 38.1918 5.40341C38.8281 4.96023 39.5895 4.73864 40.4759 4.73864C41.3736 4.73864 42.1378 4.96307 42.7685 5.41193C43.3991 5.85511 43.8196 6.45739 44.0298 7.21875H44.1662C44.4332 6.46875 44.9162 5.86932 45.6151 5.42045C46.3196 4.96591 47.152 4.73864 48.1122 4.73864C49.3338 4.73864 50.3253 5.12784 51.0866 5.90625C51.8537 6.67898 52.2372 7.77557 52.2372 9.19602V18H48.6151V9.91193C48.6151 9.18466 48.4219 8.6392 48.0355 8.27557C47.6491 7.91193 47.1662 7.73011 46.5866 7.73011C45.9276 7.73011 45.4134 7.94034 45.044 8.3608C44.6747 8.77557 44.4901 9.32386 44.4901 10.0057V18H40.9702V9.83523C40.9702 9.19318 40.7855 8.68182 40.4162 8.30114C40.0526 7.92045 39.5724 7.73011 38.9759 7.73011C38.5724 7.73011 38.2088 7.83239 37.8849 8.03693C37.5668 8.2358 37.3139 8.51705 37.1264 8.88068C36.9389 9.23864 36.8452 9.65909 36.8452 10.142V18H33.2145ZM55.1051 22.9091V4.90909H58.6847V7.10795H58.8466C59.0057 6.75568 59.2358 6.39773 59.5369 6.03409C59.8438 5.66477 60.2415 5.35795 60.7301 5.11364C61.2244 4.86364 61.8381 4.73864 62.571 4.73864C63.5256 4.73864 64.4063 4.98864 65.2131 5.48864C66.0199 5.98295 66.6648 6.73011 67.1477 7.73011C67.6307 8.72443 67.8722 9.97159 67.8722 11.4716C67.8722 12.9318 67.6364 14.1648 67.1648 15.1705C66.6989 16.1705 66.0625 16.929 65.2557 17.446C64.4545 17.9574 63.5568 18.2131 62.5625 18.2131C61.858 18.2131 61.2585 18.0966 60.7642 17.8636C60.2756 17.6307 59.875 17.3381 59.5625 16.9858C59.25 16.6278 59.0114 16.267 58.8466 15.9034H58.7358V22.9091H55.1051ZM58.6591 11.4545C58.6591 12.233 58.767 12.9119 58.983 13.4915C59.1989 14.071 59.5114 14.5227 59.9205 14.8466C60.3295 15.1648 60.8267 15.3239 61.4119 15.3239C62.0028 15.3239 62.5028 15.1619 62.9119 14.8381C63.321 14.5085 63.6307 14.054 63.8409 13.4744C64.0568 12.8892 64.1648 12.2159 64.1648 11.4545C64.1648 10.6989 64.0597 10.0341 63.8494 9.46023C63.6392 8.88636 63.3295 8.4375 62.9205 8.11364C62.5114 7.78977 62.0085 7.62784 61.4119 7.62784C60.821 7.62784 60.321 7.78409 59.9119 8.09659C59.5085 8.40909 59.1989 8.85227 58.983 9.42614C58.767 10 58.6591 10.6761 58.6591 11.4545Z" fill="#FBD50E"/>
<path d="M74.0256 18.2472C73.1903 18.2472 72.446 18.1023 71.7926 17.8125C71.1392 17.517 70.6222 17.0824 70.2415 16.5085C69.8665 15.929 69.679 15.2074 69.679 14.3438C69.679 13.6165 69.8125 13.0057 70.0795 12.5114C70.3466 12.017 70.7102 11.6193 71.1705 11.3182C71.6307 11.017 72.1534 10.7898 72.7386 10.6364C73.3295 10.483 73.9489 10.375 74.5966 10.3125C75.358 10.233 75.9716 10.1591 76.4375 10.0909C76.9034 10.017 77.2415 9.90909 77.4517 9.76705C77.6619 9.625 77.767 9.41477 77.767 9.13636V9.08523C77.767 8.54545 77.5966 8.12784 77.2557 7.83239C76.9205 7.53693 76.4432 7.3892 75.8239 7.3892C75.1705 7.3892 74.6506 7.53409 74.2642 7.82386C73.8778 8.10795 73.6222 8.46591 73.4972 8.89773L70.1392 8.625C70.3097 7.82955 70.6449 7.14205 71.1449 6.5625C71.6449 5.97727 72.2898 5.52841 73.0795 5.21591C73.875 4.89773 74.7955 4.73864 75.8409 4.73864C76.5682 4.73864 77.2642 4.82386 77.929 4.99432C78.5994 5.16477 79.1932 5.42898 79.7102 5.78693C80.233 6.14489 80.6449 6.60511 80.946 7.16761C81.2472 7.72443 81.3977 8.39205 81.3977 9.17045V18H77.9545V16.1847H77.8523C77.642 16.5938 77.3608 16.9545 77.0085 17.267C76.6562 17.5739 76.233 17.8153 75.7386 17.9915C75.2443 18.1619 74.6733 18.2472 74.0256 18.2472ZM75.0653 15.7415C75.5994 15.7415 76.071 15.6364 76.4801 15.4261C76.8892 15.2102 77.2102 14.9205 77.4432 14.5568C77.6761 14.1932 77.7926 13.7812 77.7926 13.321V11.9318C77.679 12.0057 77.5227 12.0739 77.3239 12.1364C77.1307 12.1932 76.9119 12.2472 76.6676 12.2983C76.4233 12.3437 76.179 12.3864 75.9347 12.4261C75.6903 12.4602 75.4688 12.4915 75.2699 12.5199C74.8438 12.5824 74.4716 12.6818 74.1534 12.8182C73.8352 12.9545 73.5881 13.1392 73.4119 13.3722C73.2358 13.5994 73.1477 13.8835 73.1477 14.2244C73.1477 14.7188 73.3267 15.0966 73.6847 15.358C74.0483 15.6136 74.5085 15.7415 75.0653 15.7415ZM87.8452 10.4318V18H84.2145V4.90909H87.6747V7.21875H87.8281C88.1179 6.45739 88.6037 5.85511 89.2855 5.41193C89.9673 4.96307 90.794 4.73864 91.7656 4.73864C92.6747 4.73864 93.4673 4.9375 94.1435 5.33523C94.8196 5.73295 95.3452 6.30114 95.7202 7.03977C96.0952 7.77273 96.2827 8.64773 96.2827 9.66477V18H92.652V10.3125C92.6577 9.51136 92.4531 8.88636 92.0384 8.4375C91.6236 7.98295 91.0526 7.75568 90.3253 7.75568C89.8366 7.75568 89.4048 7.8608 89.0298 8.07102C88.6605 8.28125 88.3707 8.58807 88.1605 8.99148C87.956 9.3892 87.8509 9.86932 87.8452 10.4318ZM100.917 22.9091C100.457 22.9091 100.025 22.8722 99.6214 22.7983C99.2237 22.7301 98.8942 22.642 98.6328 22.5341L99.451 19.8239C99.8771 19.9545 100.261 20.0256 100.602 20.0369C100.948 20.0483 101.246 19.9688 101.496 19.7983C101.752 19.6278 101.96 19.3381 102.119 18.929L102.332 18.375L97.6357 4.90909H101.454L104.164 14.5227H104.3L107.036 4.90909H110.88L105.792 19.4148C105.548 20.1193 105.215 20.733 104.795 21.2557C104.38 21.7841 103.854 22.1903 103.218 22.4744C102.582 22.7642 101.815 22.9091 100.917 22.9091Z" fill="#E1BD00"/>
</svg>
