<svg width="20" height="20" viewBox="0 0 20 20" fill="none" xmlns="http://www.w3.org/2000/svg">
<path d="M10.0003 1.66675C8.35215 1.66675 6.74099 2.15549 5.37058 3.07117C4.00017 3.98685 2.93206 5.28834 2.30133 6.81105C1.6706 8.33377 1.50558 10.0093 1.82712 11.6258C2.14866 13.2423 2.94234 14.7272 4.10777 15.8926C5.27321 17.0581 6.75807 17.8518 8.37458 18.1733C9.99109 18.4948 11.6666 18.3298 13.1894 17.6991C14.7121 17.0683 16.0136 16.0002 16.9292 14.6298C17.8449 13.2594 18.3337 11.6483 18.3337 10.0001C18.3337 8.90573 18.1181 7.8221 17.6993 6.81105C17.2805 5.80001 16.6667 4.88135 15.8929 4.10752C15.1191 3.3337 14.2004 2.71987 13.1894 2.30109C12.1783 1.8823 11.0947 1.66675 10.0003 1.66675ZM10.0003 16.6667C8.68179 16.6667 7.39286 16.2758 6.29653 15.5432C5.2002 14.8107 4.34572 13.7695 3.84113 12.5513C3.33655 11.3331 3.20453 9.99269 3.46176 8.69948C3.719 7.40627 4.35393 6.21839 5.28628 5.28604C6.21863 4.35369 7.40652 3.71875 8.69973 3.46151C9.99293 3.20428 11.3334 3.3363 12.5516 3.84088C13.7697 4.34547 14.8109 5.19995 15.5435 6.29628C16.276 7.39261 16.667 8.68154 16.667 10.0001C16.667 11.7682 15.9646 13.4639 14.7144 14.7141C13.4641 15.9644 11.7684 16.6667 10.0003 16.6667Z" fill="#191A1F"/>
<path d="M10.8337 9.16675H13.3337C13.5547 9.16675 13.7666 9.25455 13.9229 9.41083C14.0792 9.56711 14.167 9.77907 14.167 10.0001C14.167 10.2211 14.0792 10.4331 13.9229 10.5893C13.7666 10.7456 13.5547 10.8334 13.3337 10.8334H10.8337H9.167H6.667C6.44598 10.8334 6.23402 10.7456 6.07774 10.5893C5.92146 10.4331 5.83366 10.2211 5.83366 10.0001C5.83366 9.77907 5.92146 9.56711 6.07774 9.41083C6.23402 9.25455 6.44598 9.16675 6.667 9.16675H9.167H10.8337Z" fill="#191A1F"/>
</svg>
