<svg width="79" height="24" viewBox="0 0 79 24" fill="none" xmlns="http://www.w3.org/2000/svg">
<path d="M14.4681 11.2009L15.3233 8.21495H19.2909C21.3798 8.21495 22.6415 7.26168 23.2303 5.25701L23.5528 4.14953C24.2958 1.59813 23.0901 0.0140195 20.4545 0.0140195H3.21047L0 11.2009H14.4681ZM20.4264 3.01402L19.7535 5.45327H16.1224L16.8094 3.02804H20.4264V3.01402ZM25.0248 11.2009L26.0903 9.32243H30.9972V11.2009H34.2216V0H27.8848L21.2816 11.2009H25.0248ZM29.6653 3.04206H30.9972V6.6028H27.6325L29.6653 3.04206ZM47.386 5.14486L47.6804 4.13551C48.4234 1.55607 47.2177 0 44.5821 0H38.4555L35.2451 11.2009H38.5957L39.479 8.11682H41.5679L42.5212 11.2009H45.97L44.9606 7.90654C46.1663 7.54205 46.9654 6.61682 47.386 5.14486ZM40.923 3.01402H44.54L43.8671 5.43925H40.236L40.923 3.01402ZM50.5264 11.2009L53.7368 0H50.3721L47.1757 11.2009H50.5264ZM29.9597 12.785L26.1744 17.257L24.6183 12.785H10.0941L6.8976 24H21.3798L23.1462 17.8037L24.3239 21.2664H26.4829L29.6092 17.5794L27.7586 24H31.1093L34.3058 12.785H29.9597ZM38.806 12.785L32.1888 23.986H35.932L36.9975 22.1075H41.9043V23.986H45.1288V12.7991L38.806 12.785ZM38.5537 19.4159L40.5725 15.8551H41.9043V19.4159H38.5537ZM56.4846 15.9953L57.3959 12.785H47.2037L46.2925 15.9953H49.9796L47.6804 24H51.0311L53.3303 15.9953H56.4846ZM60.9569 15.9953H66.046L66.9712 12.7991H61.5457C59.4568 12.7991 58.195 13.7523 57.6062 15.757L56.4146 19.8505C55.6575 22.472 56.8772 23.986 59.5129 23.986H63.7327L64.644 20.7897H59.5549L60.9569 15.9953ZM75.6493 12.785L74.4997 16.7944H70.6584L71.794 12.785H68.4433L65.2468 24H68.5975L69.7331 19.9907H73.5744L72.4389 24H75.8036L79 12.785H75.6493Z" fill="#F6FF00"/>
</svg>
