<svg width="79" height="24" viewBox="0 0 79 24" fill="none" xmlns="http://www.w3.org/2000/svg">
<path d="M14.4683 11.2009L15.3235 8.21495H19.291C21.3799 8.21495 22.6416 7.26168 23.2305 5.25701L23.5529 4.14953C24.296 1.59813 23.0903 0.0140195 20.4546 0.0140195H3.21059L0.00012207 11.2009H14.4683ZM20.4266 3.01402L19.7536 5.45327H16.1226L16.8095 3.02804H20.4266V3.01402ZM25.025 11.2009L26.0905 9.32243H30.9973V11.2009H34.2218V0H27.8849L21.2818 11.2009H25.025ZM29.6654 3.04206H30.9973V6.6028H27.6326L29.6654 3.04206ZM47.3861 5.14486L47.6805 4.13551C48.4235 1.55607 47.2179 0 44.5822 0H38.4557L35.2452 11.2009H38.5959L39.4791 8.11682H41.568L42.5213 11.2009H45.9701L44.9607 7.90654C46.1664 7.54205 46.9655 6.61682 47.3861 5.14486ZM40.9231 3.01402H44.5401L43.8672 5.43925H40.2361L40.9231 3.01402ZM50.5265 11.2009L53.7369 0H50.3723L47.1758 11.2009H50.5265ZM29.9598 12.785L26.1746 17.257L24.6184 12.785H10.0942L6.89773 24H21.3799L23.1464 17.8037L24.324 21.2664H26.483L29.6094 17.5794L27.7588 24H31.1094L34.3059 12.785H29.9598ZM38.8062 12.785L32.1889 23.986H35.9322L36.9976 22.1075H41.9045V23.986H45.129V12.7991L38.8062 12.785ZM38.5538 19.4159L40.5726 15.8551H41.9045V19.4159H38.5538ZM56.4848 15.9953L57.396 12.785H47.2038L46.2926 15.9953H49.9797L47.6805 24H51.0312L53.3304 15.9953H56.4848ZM60.957 15.9953H66.0461L66.9714 12.7991H61.5458C59.4569 12.7991 58.1952 13.7523 57.6063 15.757L56.4147 19.8505C55.6576 22.472 56.8773 23.986 59.513 23.986H63.7329L64.6441 20.7897H59.555L60.957 15.9953ZM75.6495 12.785L74.4999 16.7944H70.6585L71.7941 12.785H68.4434L65.247 24H68.5976L69.7332 19.9907H73.5746L72.439 24H75.8037L79.0001 12.785H75.6495Z" fill="#F6FF00"/>
</svg>
