<svg width="32" height="32" viewBox="0 0 32 32" fill="none" xmlns="http://www.w3.org/2000/svg">
<path d="M23.6129 15.0535L16.9463 8.38685C16.8195 8.26547 16.6699 8.17031 16.5063 8.10685C16.1816 7.9735 15.8175 7.9735 15.4929 8.10685C15.3293 8.17031 15.1797 8.26547 15.0529 8.38685L8.38626 15.0535C8.26194 15.1778 8.16333 15.3254 8.09605 15.4879C8.02877 15.6503 7.99414 15.8244 7.99414 16.0002C7.99414 16.3553 8.13519 16.6958 8.38626 16.9469C8.63733 17.1979 8.97786 17.339 9.33293 17.339C9.688 17.339 10.0285 17.1979 10.2796 16.9469L14.6663 12.5469V22.6669C14.6663 23.0205 14.8067 23.3596 15.0568 23.6097C15.3068 23.8597 15.646 24.0002 15.9996 24.0002C16.3532 24.0002 16.6924 23.8597 16.9424 23.6097C17.1925 23.3596 17.3329 23.0205 17.3329 22.6669V12.5469L21.7196 16.9469C21.8435 17.0718 21.991 17.171 22.1535 17.2387C22.316 17.3064 22.4902 17.3413 22.6663 17.3413C22.8423 17.3413 23.0166 17.3064 23.179 17.2387C23.3415 17.171 23.489 17.0718 23.6129 16.9469C23.7379 16.8229 23.8371 16.6754 23.9048 16.513C23.9725 16.3505 24.0073 16.1762 24.0073 16.0002C24.0073 15.8242 23.9725 15.6499 23.9048 15.4874C23.8371 15.3249 23.7379 15.1775 23.6129 15.0535Z" fill="#191A1F"/>
</svg>
