<svg width="86" height="24" viewBox="0 0 86 24" fill="none" xmlns="http://www.w3.org/2000/svg">
<path d="M60.5237 8.7373H62.7679V18.423H66.0377V20.5709H60.5237V8.7373Z" fill="white"/>
<path d="M73.9397 11.8183H76.1276V20.5708H73.9397V19.6456C73.5685 20.0154 73.133 20.314 72.6547 20.5265C72.2117 20.7089 71.7368 20.8005 71.2579 20.796C70.7058 20.7981 70.1595 20.6818 69.6557 20.455C69.1519 20.2282 68.7021 19.896 68.3364 19.4807C67.5115 18.5968 67.0683 17.4213 67.1035 16.2106C67.056 14.9897 67.4838 13.798 68.2963 12.8882C68.6579 12.4755 69.104 12.1461 69.6042 11.9226C70.1043 11.6991 70.6467 11.5866 71.1941 11.593C71.7002 11.5896 72.2015 11.6909 72.6668 11.8907C73.1448 12.1025 73.5772 12.4058 73.9397 12.7836L73.9397 11.8183ZM71.6396 13.6203C71.3237 13.6124 71.0099 13.6726 70.7192 13.7968C70.4284 13.921 70.1676 14.1063 69.9543 14.3402C69.5189 14.8607 69.2812 15.5191 69.2834 16.1987C69.2856 16.8783 69.5276 17.5352 69.9663 18.0528C70.1782 18.2883 70.4379 18.4756 70.7279 18.6018C71.0179 18.7281 71.3315 18.7905 71.6476 18.7849C71.9671 18.7934 72.2848 18.7336 72.5795 18.6094C72.8742 18.4853 73.1392 18.2997 73.357 18.0649C73.8224 17.5506 74.0665 16.8725 74.0359 16.1784C74.0503 15.8403 73.9978 15.5026 73.8813 15.185C73.7647 14.8674 73.5865 14.5761 73.357 14.3282C73.1361 14.096 72.8691 13.913 72.5733 13.791C72.2774 13.6691 71.9593 13.6109 71.6396 13.6203Z" fill="white"/>
<path d="M7.20492 10.3462L5.54297 11.8184C4.95943 11.0032 4.36526 10.5956 3.76046 10.5956C3.499 10.5846 3.24239 10.6688 3.03802 10.8329C2.95383 10.8949 2.88478 10.9752 2.8361 11.0679C2.78742 11.1606 2.76037 11.2632 2.75701 11.3679C2.75922 11.5729 2.82989 11.7711 2.95771 11.931C3.46848 12.4776 4.01855 12.9857 4.60347 13.4514C5.45965 14.1701 5.9788 14.6233 6.1609 14.811C6.55791 15.192 6.88532 15.6398 7.12829 16.1343C7.32101 16.5683 7.41822 17.0388 7.41329 17.5139C7.42602 17.9634 7.34315 18.4104 7.17021 18.8252C6.99726 19.2399 6.73822 19.6129 6.41035 19.9193C5.69716 20.5691 4.75733 20.9102 3.79503 20.8685C3.01836 20.8866 2.25408 20.6709 1.60063 20.2491C0.906698 19.7518 0.354835 19.0806 0.00012207 18.3023L1.88631 17.16C2.45365 18.2058 3.10648 18.7287 3.84479 18.7287C4.19889 18.7396 4.54461 18.6194 4.81601 18.3908C4.93592 18.2989 5.03358 18.181 5.1017 18.0458C5.16982 17.9107 5.20662 17.7619 5.20937 17.6105C5.20037 17.317 5.09607 17.0345 4.91235 16.806C4.52021 16.351 4.08165 15.9385 3.60386 15.5752C2.31924 14.524 1.4896 13.7129 1.11494 13.1417C0.762842 12.6405 0.56727 12.0454 0.553104 11.4322C0.549941 11.0337 0.63172 10.6391 0.792952 10.2749C0.954184 9.91067 1.19114 9.58528 1.48793 9.32054C2.11109 8.73313 2.94015 8.41653 3.79469 8.43966C4.37973 8.4388 4.95635 8.57954 5.47567 8.84993C6.14043 9.23548 6.72704 9.74306 7.20492 10.3462Z" fill="url(#paint0_linear_25_468)"/>
<path d="M9.32069 8.43964H11.4926V12.7033C11.8773 12.3606 12.3125 12.0797 12.7828 11.8706C13.1976 11.6894 13.6448 11.595 14.0972 11.5931C14.504 11.5843 14.9082 11.6598 15.2846 11.8148C15.6611 11.9698 16.0016 12.2011 16.2851 12.4941C16.7926 13.0143 17.0464 13.7785 17.0464 14.7868V20.5709H14.8906V16.7336C14.9174 16.0439 14.869 15.3533 14.7463 14.6742C14.6771 14.3579 14.5034 14.0744 14.2535 13.8697C14.0038 13.6872 13.7006 13.5938 13.3919 13.6043C12.9683 13.5966 12.5585 13.7553 12.2499 14.0467C11.9142 14.3735 11.6839 14.7938 11.5887 15.2534C11.5026 15.8499 11.4704 16.453 11.4926 17.0554V20.5709H9.32069V8.43964Z" fill="url(#paint1_linear_25_468)"/>
<path d="M25.5976 11.8183H27.7855V20.5708H25.5976V19.6456C25.2264 20.0154 24.791 20.3139 24.3129 20.5265C23.8698 20.7088 23.3949 20.8004 22.916 20.796C22.3638 20.7981 21.8175 20.6818 21.3136 20.455C20.8098 20.2282 20.3599 19.896 19.9942 19.4807C19.1694 18.5967 18.7263 17.4212 18.7615 16.2106C18.7138 14.9896 19.1417 13.798 19.9543 12.8882C20.3158 12.4755 20.7619 12.1461 21.2621 11.9226C21.7622 11.699 22.3046 11.5866 22.8521 11.593C23.3581 11.5896 23.8594 11.6909 24.3247 11.8907C24.8028 12.1025 25.2352 12.4058 25.5976 12.7836L25.5976 11.8183ZM23.2977 13.6203C22.9818 13.6124 22.6679 13.6726 22.3772 13.7968C22.0864 13.921 21.8256 14.1063 21.6122 14.3402C21.1562 14.8436 20.9153 15.5066 20.9414 16.1865C20.9161 16.8745 21.1613 17.5448 21.6243 18.0528C21.8361 18.2883 22.0958 18.4755 22.3859 18.6018C22.6759 18.7281 22.9895 18.7905 23.3056 18.7849C23.6251 18.7934 23.9427 18.7336 24.2374 18.6094C24.5321 18.4853 24.7971 18.2997 25.0149 18.0649C25.4804 17.5506 25.7244 16.8725 25.6938 16.1784C25.7083 15.8403 25.6557 15.5026 25.5392 15.185C25.4227 14.8674 25.2445 14.5761 25.0149 14.3282C24.7941 14.096 24.5271 13.913 24.2313 13.791C23.9355 13.6691 23.6174 13.6109 23.2977 13.6203Z" fill="url(#paint2_linear_25_468)"/>
<path d="M29.9975 11.8183H32.1853V12.7153C32.5874 12.3556 33.0422 12.0601 33.5337 11.8392C33.926 11.6772 34.3461 11.5936 34.7703 11.593C35.1795 11.5855 35.586 11.6622 35.9645 11.8186C36.343 11.975 36.6856 12.2076 36.971 12.5021C37.4777 13.0169 37.7311 13.7785 37.7312 14.7867V20.5708H35.5674V16.7379C35.5953 16.0412 35.5484 15.3435 35.4274 14.6568C35.3559 14.3486 35.1843 14.0729 34.9396 13.8733C34.6917 13.6887 34.3887 13.5939 34.0802 13.6042C33.6568 13.5967 33.2476 13.7569 32.941 14.0502C32.6029 14.3857 32.3731 14.8154 32.2812 15.2837C32.1965 15.8715 32.1645 16.4658 32.1854 17.0593V20.5708H29.9975L29.9975 11.8183Z" fill="url(#paint3_linear_25_468)"/>
<path d="M46.2904 11.8183H48.4703V19.3158C48.4703 20.796 48.1737 21.8847 47.5807 22.5819C46.7846 23.5258 45.5851 23.9978 43.9823 23.9978C43.2505 24.017 42.521 23.9081 41.8265 23.676C41.2671 23.4815 40.7614 23.1572 40.3506 22.7295C39.9398 22.3017 39.6354 21.7826 39.4623 21.2144H41.8745C42.0982 21.4678 42.3822 21.6602 42.7 21.7734C43.0837 21.9072 43.4881 21.9712 43.8941 21.9625C44.3817 21.9829 44.8673 21.8893 45.3127 21.689C45.6344 21.541 45.9 21.2927 46.07 20.9811C46.2486 20.5037 46.3238 19.9936 46.2904 19.4848C45.9478 19.8422 45.536 20.1256 45.0802 20.3174C44.6225 20.4928 44.1356 20.5788 43.6457 20.5708C43.0901 20.5806 42.5387 20.4725 42.0277 20.2534C41.5167 20.0344 41.0576 19.7094 40.6804 19.2997C39.8879 18.3873 39.4572 17.2142 39.4705 16.0038C39.4838 14.7933 39.9401 13.63 40.7526 12.7354C41.1143 12.3674 41.5464 12.0765 42.0229 11.8802C42.4994 11.6839 43.0105 11.5863 43.5255 11.593C44.0133 11.5902 44.4968 11.6846 44.948 11.8706C45.4468 12.091 45.9016 12.4003 46.2904 12.7836V11.8183ZM44.0224 13.6444C43.7052 13.6347 43.3896 13.6916 43.0956 13.8114C42.8017 13.9312 42.5359 14.1114 42.3153 14.3403C42.0923 14.5719 41.9179 14.8462 41.8022 15.1467C41.6866 15.4472 41.6322 15.768 41.6421 16.09C41.6302 16.4202 41.6852 16.7495 41.8036 17.0578C41.9221 17.3662 42.1016 17.6472 42.3314 17.8839C42.5564 18.1138 42.8263 18.2947 43.1242 18.4151C43.422 18.5355 43.7414 18.593 44.0624 18.5838C44.3743 18.5935 44.6848 18.5377 44.9739 18.4199C45.263 18.3022 45.5244 18.1251 45.7414 17.9C45.9651 17.6602 46.1388 17.378 46.2523 17.07C46.3658 16.7619 46.4169 16.4342 46.4026 16.106C46.4159 15.7801 46.3639 15.4548 46.2496 15.1494C46.1354 14.844 45.9612 14.5648 45.7374 14.3282C45.5144 14.1011 45.2467 13.9231 44.9515 13.8054C44.6562 13.6877 44.3398 13.6329 44.0224 13.6444Z" fill="url(#paint4_linear_25_468)"/>
<path d="M50.1693 11.8184H52.0446V12.9205C52.2181 12.5218 52.4983 12.1793 52.8541 11.931C53.1803 11.7089 53.5659 11.5911 53.96 11.5931C54.2697 11.5996 54.5739 11.6767 54.8496 11.8184L54.1684 13.7088C53.9742 13.5981 53.758 13.5322 53.5353 13.5158C53.3489 13.53 53.1701 13.5963 53.0193 13.7072C52.8685 13.8181 52.7515 13.9691 52.6818 14.1432C52.4493 14.5616 52.3331 15.3821 52.3331 16.6049L52.3412 17.0312V20.5708H50.1693V11.8184Z" fill="url(#paint5_linear_25_468)"/>
<path d="M56.7851 8.21434C56.9694 8.21202 57.1522 8.24799 57.322 8.31998C57.4918 8.39196 57.645 8.49842 57.7718 8.63266C57.9053 8.7648 58.0106 8.92279 58.0814 9.09703C58.1521 9.27127 58.1869 9.45813 58.1836 9.64627C58.1867 9.83223 58.1522 10.0169 58.0821 10.1891C58.012 10.3612 57.9078 10.5173 57.7758 10.6478C57.6506 10.7806 57.4993 10.8859 57.3316 10.9572C57.1639 11.0285 56.9832 11.0642 56.8011 11.0621C56.6151 11.0648 56.4306 11.0287 56.2593 10.956C56.088 10.8833 55.9336 10.7756 55.806 10.6398C55.6722 10.5054 55.5668 10.3453 55.4962 10.169C55.4255 9.99278 55.3909 9.80405 55.3946 9.61409C55.3943 9.24345 55.5405 8.88783 55.8012 8.62537C56.062 8.3629 56.4158 8.21507 56.7851 8.21434ZM55.6911 11.8183H57.879V20.5708H55.6911L55.6911 11.8183Z" fill="url(#paint6_linear_25_468)"/>
<path d="M58.1836 8.23745C59.682 7.34057 60.9656 6.12405 61.9437 4.67399C63.5095 2.30924 64.1183 -0.516967 65.7793 0.081158C67.4404 0.679283 75.3577 10.8328 75.3577 10.8328C75.3577 10.8328 66.5246 2.27869 65.7542 2.33443C64.9839 2.39018 61.6477 8.21197 58.1836 8.23745Z" fill="url(#paint7_linear_25_468)"/>
<path d="M86.0001 20.5708C86.0001 20.5708 79.7001 5.6687 75.9503 2.48808C73.7138 0.591043 70.7676 4.98852 70.7676 4.98852C70.7676 4.98852 74.1101 2.64443 75.9072 4.81438C77.7043 6.98434 86.0001 20.5708 86.0001 20.5708Z" fill="url(#paint8_linear_25_468)"/>
<defs>
<linearGradient id="paint0_linear_25_468" x1="3.7067" y1="8.43966" x2="3.7067" y2="20.8685" gradientUnits="userSpaceOnUse">
<stop stop-color="#72D207"/>
<stop offset="0.99553" stop-color="#4D9002"/>
</linearGradient>
<linearGradient id="paint1_linear_25_468" x1="13.1836" y1="8.43964" x2="13.1836" y2="20.5708" gradientUnits="userSpaceOnUse">
<stop stop-color="#72D207"/>
<stop offset="0.99553" stop-color="#4D9002"/>
</linearGradient>
<linearGradient id="paint2_linear_25_468" x1="23.2735" y1="11.593" x2="23.2735" y2="20.796" gradientUnits="userSpaceOnUse">
<stop stop-color="#72D207"/>
<stop offset="0.99553" stop-color="#4D9002"/>
</linearGradient>
<linearGradient id="paint3_linear_25_468" x1="33.8643" y1="11.593" x2="33.8643" y2="20.5708" gradientUnits="userSpaceOnUse">
<stop stop-color="#72D207"/>
<stop offset="0.99553" stop-color="#4D9002"/>
</linearGradient>
<linearGradient id="paint4_linear_25_468" x1="43.9663" y1="11.593" x2="43.9663" y2="23.9978" gradientUnits="userSpaceOnUse">
<stop stop-color="#72D207"/>
<stop offset="0.99553" stop-color="#4D9002"/>
</linearGradient>
<linearGradient id="paint5_linear_25_468" x1="52.5095" y1="11.5931" x2="52.5095" y2="20.5708" gradientUnits="userSpaceOnUse">
<stop stop-color="#72D207"/>
<stop offset="0.99553" stop-color="#4D9002"/>
</linearGradient>
<linearGradient id="paint6_linear_25_468" x1="56.7891" y1="8.21434" x2="56.7891" y2="20.5708" gradientUnits="userSpaceOnUse">
<stop stop-color="#72D207"/>
<stop offset="0.99553" stop-color="#4D9002"/>
</linearGradient>
<linearGradient id="paint7_linear_25_468" x1="66.7706" y1="-1.01483e-05" x2="66.7706" y2="10.8328" gradientUnits="userSpaceOnUse">
<stop stop-color="#72D207"/>
<stop offset="0.99553" stop-color="#4D9002"/>
</linearGradient>
<linearGradient id="paint8_linear_25_468" x1="78.3839" y1="2.01306" x2="78.3839" y2="20.5708" gradientUnits="userSpaceOnUse">
<stop stop-color="#72D207"/>
<stop offset="0.99553" stop-color="#4D9002"/>
</linearGradient>
</defs>
</svg>
