<svg width="49" height="48" viewBox="0 0 49 48" fill="none" xmlns="http://www.w3.org/2000/svg">
<rect x="0.5" width="48" height="48" rx="8" fill="#2DA47F"/>
<path d="M26.5626 21.3337V18.9881H31.8989V15.2869H17.0864V18.9881H22.4376V21.3337C17.9545 21.5494 14.5889 22.4494 14.5889 23.5275C14.5889 24.6056 17.9507 25.5 22.4376 25.7212V33.4631H26.5626V25.7212C31.0457 25.5075 34.4114 24.6075 34.4114 23.5275C34.4114 22.4475 31.0495 21.5494 26.5626 21.3337ZM24.5001 25.02C19.6457 25.02 15.7101 24.27 15.7101 23.3662C15.7101 22.5881 18.577 21.9356 22.4339 21.7612V24.4106C23.0976 24.4406 23.7876 24.4575 24.4964 24.4575C25.2051 24.4575 25.8989 24.4406 26.5589 24.4106V21.7612C30.4157 21.9356 33.2826 22.5881 33.2826 23.3662C33.2901 24.2794 29.3545 25.02 24.5001 25.02Z" fill="white"/>
</svg>
