<svg width="20" height="20" viewBox="0 0 20 20" fill="none" xmlns="http://www.w3.org/2000/svg">
<path d="M9.40842 12.7417C9.37258 12.7813 9.33919 12.823 9.30842 12.8667C9.27688 12.9131 9.25166 12.9636 9.23342 13.0167C9.20939 13.0639 9.19254 13.1145 9.18342 13.1667C9.17933 13.2221 9.17933 13.2778 9.18342 13.3333C9.1806 13.4426 9.20343 13.5511 9.25009 13.65C9.28751 13.7534 9.34722 13.8473 9.42499 13.9251C9.50276 14.0029 9.59667 14.0626 9.70009 14.1C9.79984 14.1441 9.90769 14.1669 10.0168 14.1669C10.1258 14.1669 10.2337 14.1441 10.3334 14.1C10.4368 14.0626 10.5307 14.0029 10.6085 13.9251C10.6863 13.8473 10.746 13.7534 10.7834 13.65C10.8204 13.5487 10.8374 13.4411 10.8334 13.3333C10.8341 13.2237 10.813 13.1149 10.7716 13.0134C10.7301 12.9119 10.669 12.8195 10.5918 12.7417C10.5143 12.6636 10.4221 12.6016 10.3206 12.5592C10.219 12.5169 10.1101 12.4952 10.0001 12.4952C9.89008 12.4952 9.78115 12.5169 9.6796 12.5592C9.57805 12.6016 9.48589 12.6636 9.40842 12.7417ZM10.0001 1.66666C8.35191 1.66666 6.74074 2.1554 5.37033 3.07108C3.99992 3.98675 2.93182 5.28824 2.30109 6.81096C1.67036 8.33368 1.50533 10.0092 1.82687 11.6257C2.14842 13.2423 2.94209 14.7271 4.10753 15.8925C5.27297 17.058 6.75782 17.8517 8.37433 18.1732C9.99084 18.4947 11.6664 18.3297 13.1891 17.699C14.7118 17.0683 16.0133 16.0002 16.929 14.6297C17.8447 13.2593 18.3334 11.6482 18.3334 9.99999C18.3334 8.90564 18.1179 7.82201 17.6991 6.81096C17.2803 5.79991 16.6665 4.88125 15.8926 4.10743C15.1188 3.33361 14.2002 2.71978 13.1891 2.30099C12.1781 1.8822 11.0944 1.66666 10.0001 1.66666ZM10.0001 16.6667C8.68154 16.6667 7.39261 16.2757 6.29628 15.5431C5.19996 14.8106 4.34547 13.7694 3.84089 12.5512C3.3363 11.333 3.20428 9.99259 3.46152 8.69939C3.71875 7.40618 4.35369 6.2183 5.28604 5.28594C6.21839 4.35359 7.40628 3.71866 8.69948 3.46142C9.99269 3.20419 11.3331 3.33621 12.5513 3.84079C13.7695 4.34538 14.8107 5.19986 15.5432 6.29619C16.2758 7.39252 16.6668 8.68145 16.6668 9.99999C16.6668 11.7681 15.9644 13.4638 14.7141 14.714C13.4639 15.9643 11.7682 16.6667 10.0001 16.6667ZM10.0001 5.83332C9.56097 5.83304 9.12953 5.94842 8.74918 6.16786C8.36882 6.38729 8.05297 6.70304 7.83342 7.08332C7.77312 7.17817 7.73264 7.28424 7.7144 7.39514C7.69616 7.50604 7.70054 7.61948 7.72728 7.72865C7.75401 7.83781 7.80256 7.94044 7.86999 8.03035C7.93742 8.12027 8.02234 8.19562 8.11964 8.25186C8.21695 8.30811 8.32463 8.34409 8.4362 8.35764C8.54777 8.37119 8.66093 8.36204 8.76887 8.33072C8.87681 8.29941 8.9773 8.24658 9.06429 8.17542C9.15129 8.10426 9.22299 8.01624 9.27509 7.91666C9.34851 7.78949 9.45423 7.68397 9.58154 7.61081C9.70886 7.53764 9.85324 7.49941 10.0001 7.49999C10.2211 7.49999 10.4331 7.58779 10.5893 7.74407C10.7456 7.90035 10.8334 8.11231 10.8334 8.33332C10.8334 8.55434 10.7456 8.7663 10.5893 8.92258C10.4331 9.07886 10.2211 9.16666 10.0001 9.16666C9.77907 9.16666 9.56711 9.25445 9.41083 9.41073C9.25455 9.56702 9.16675 9.77898 9.16675 9.99999V10.8333C9.16675 11.0543 9.25455 11.2663 9.41083 11.4226C9.56711 11.5789 9.77907 11.6667 10.0001 11.6667C10.2211 11.6667 10.4331 11.5789 10.5893 11.4226C10.7456 11.2663 10.8334 11.0543 10.8334 10.8333V10.6833C11.3846 10.4833 11.8479 10.096 12.1424 9.58905C12.4369 9.08208 12.5439 8.48773 12.4446 7.9099C12.3453 7.33206 12.0461 6.8075 11.5992 6.42792C11.1524 6.04833 10.5864 5.83787 10.0001 5.83332Z">
</svg>
