<svg width="22" height="16" viewBox="0 0 22 16" fill="none" xmlns="http://www.w3.org/2000/svg">
<g clip-path="url(#clip0_60_787)">
<rect width="22" height="16" rx="2" fill="#F93939"/>
<path fill-rule="evenodd" clip-rule="evenodd" d="M14.6687 9.2288L13.4514 9.87946L13.684 8.50026L12.6992 7.52213L14.0611 7.31946L14.6687 6.06506L15.2764 7.32053L16.6383 7.5232L15.6535 8.4992L15.8861 9.8784" fill="white"/>
<path fill-rule="evenodd" clip-rule="evenodd" d="M9.95231 11.7334C11.9774 11.7334 13.619 10.0619 13.619 8.00006C13.619 5.93819 11.9774 4.26672 9.95231 4.26672C7.92726 4.26672 6.28564 5.93819 6.28564 8.00006C6.28564 10.0619 7.92726 11.7334 9.95231 11.7334ZM10.9999 10.6667C12.4456 10.6667 13.619 9.47206 13.619 8.00006C13.619 6.52806 12.4456 5.33339 10.9999 5.33339C9.55422 5.33339 8.38088 6.52806 8.38088 8.00006C8.38088 9.47206 9.55422 10.6667 10.9999 10.6667Z" fill="white"/>
</g>
<defs>
<clipPath id="clip0_60_787">
<rect width="22" height="16" fill="white"/>
</clipPath>
</defs>
</svg>
