<svg width="20" height="20" viewBox="0 0 20 20" fill="none" xmlns="http://www.w3.org/2000/svg">
<path d="M19.1667 4.32692C18.5119 4.61538 17.7636 4.80769 17.0153 4.90385C17.7636 4.42308 18.4184 3.65385 18.699 2.78846C17.9507 3.26923 17.2024 3.55769 16.267 3.75C15.6123 2.98077 14.5833 2.5 13.5544 2.5C11.4966 2.5 9.81292 4.23077 9.81292 6.34615C9.81292 6.63461 9.81293 6.92307 9.90647 7.21153C6.81973 7.01922 4.0136 5.48077 2.14285 3.17307C1.86224 3.75 1.67517 4.42307 1.67517 5.09615C1.67517 6.4423 2.32993 7.59615 3.35884 8.26923C2.70408 8.26923 2.14285 8.07692 1.67517 7.78846C1.67517 9.61538 2.98469 11.25 4.66836 11.5385C4.38775 11.6346 4.01361 11.6346 3.63946 11.6346C3.35885 11.6346 3.17177 11.6346 2.89116 11.5385C3.35884 13.0769 4.76191 14.2308 6.44558 14.2308C5.13606 15.2885 3.54592 15.8654 1.76871 15.8654C1.4881 15.8654 1.20749 15.8654 0.833336 15.7692C2.51701 16.8269 4.48129 17.5 6.63266 17.5C13.5544 17.5 17.2959 11.6346 17.2959 6.53846V6.05769C18.0442 5.76923 18.699 5.09615 19.1667 4.32692Z" fill="#55ACE3"/>
</svg>
